<mxfile host="app.diagrams.net" modified="2023-09-14T18:34:42.876Z" agent="Mozilla/5.0 (Windows NT 10.0; Win64; x64) AppleWebKit/537.36 (KHTML, like Gecko) Chrome/114.0.0.0 Safari/537.36 OPR/100.0.0.0" etag="XVSpdw8sAnOMbCwGYtMI" version="21.7.2" type="github">
  <diagram name="PÃ¡gina-1" id="pEnUQ1wbZs-K_-BokSZE">
    <mxGraphModel dx="2800" dy="1655" grid="1" gridSize="10" guides="1" tooltips="1" connect="1" arrows="1" fold="1" page="1" pageScale="1" pageWidth="1920" pageHeight="1200" math="0" shadow="0">
      <root>
        <mxCell id="0" />
        <mxCell id="1" parent="0" />
        <mxCell id="EUJh6cPpPxXMoMCrmLlQ-1" value="CIUDAD" style="shape=table;startSize=30;container=1;collapsible=0;childLayout=tableLayout;strokeColor=#6c8ebf;fontSize=16;fillColor=#dae8fc;" vertex="1" parent="1">
          <mxGeometry x="-250" y="40" width="270" height="190" as="geometry" />
        </mxCell>
        <mxCell id="EUJh6cPpPxXMoMCrmLlQ-2" value="" style="shape=tableRow;horizontal=0;startSize=0;swimlaneHead=0;swimlaneBody=0;strokeColor=inherit;top=0;left=0;bottom=0;right=0;collapsible=0;dropTarget=0;fillColor=none;points=[[0,0.5],[1,0.5]];portConstraint=eastwest;fontSize=16;" vertex="1" parent="EUJh6cPpPxXMoMCrmLlQ-1">
          <mxGeometry y="30" width="270" height="40" as="geometry" />
        </mxCell>
        <mxCell id="EUJh6cPpPxXMoMCrmLlQ-3" value="PK" style="shape=partialRectangle;html=1;whiteSpace=wrap;connectable=0;strokeColor=inherit;overflow=hidden;fillColor=none;top=0;left=0;bottom=0;right=0;pointerEvents=1;fontSize=16;fontStyle=1" vertex="1" parent="EUJh6cPpPxXMoMCrmLlQ-2">
          <mxGeometry width="30" height="40" as="geometry">
            <mxRectangle width="30" height="40" as="alternateBounds" />
          </mxGeometry>
        </mxCell>
        <mxCell id="EUJh6cPpPxXMoMCrmLlQ-4" value="nombre_ciudad" style="shape=partialRectangle;html=1;whiteSpace=wrap;connectable=0;strokeColor=inherit;overflow=hidden;fillColor=none;top=0;left=0;bottom=0;right=0;pointerEvents=1;fontSize=16;fontStyle=1" vertex="1" parent="EUJh6cPpPxXMoMCrmLlQ-2">
          <mxGeometry x="30" width="120" height="40" as="geometry">
            <mxRectangle width="120" height="40" as="alternateBounds" />
          </mxGeometry>
        </mxCell>
        <mxCell id="EUJh6cPpPxXMoMCrmLlQ-148" value="char(15)" style="shape=partialRectangle;html=1;whiteSpace=wrap;connectable=0;strokeColor=inherit;overflow=hidden;fillColor=none;top=0;left=0;bottom=0;right=0;pointerEvents=1;fontSize=16;fontStyle=1" vertex="1" parent="EUJh6cPpPxXMoMCrmLlQ-2">
          <mxGeometry x="150" width="90" height="40" as="geometry">
            <mxRectangle width="90" height="40" as="alternateBounds" />
          </mxGeometry>
        </mxCell>
        <mxCell id="EUJh6cPpPxXMoMCrmLlQ-152" value="N" style="shape=partialRectangle;html=1;whiteSpace=wrap;connectable=0;strokeColor=inherit;overflow=hidden;fillColor=none;top=0;left=0;bottom=0;right=0;pointerEvents=1;fontSize=16;fontStyle=1" vertex="1" parent="EUJh6cPpPxXMoMCrmLlQ-2">
          <mxGeometry x="240" width="30" height="40" as="geometry">
            <mxRectangle width="30" height="40" as="alternateBounds" />
          </mxGeometry>
        </mxCell>
        <mxCell id="EUJh6cPpPxXMoMCrmLlQ-5" value="" style="shape=tableRow;horizontal=0;startSize=0;swimlaneHead=0;swimlaneBody=0;strokeColor=inherit;top=0;left=0;bottom=0;right=0;collapsible=0;dropTarget=0;fillColor=none;points=[[0,0.5],[1,0.5]];portConstraint=eastwest;fontSize=16;" vertex="1" parent="EUJh6cPpPxXMoMCrmLlQ-1">
          <mxGeometry y="70" width="270" height="40" as="geometry" />
        </mxCell>
        <mxCell id="EUJh6cPpPxXMoMCrmLlQ-6" value="" style="shape=partialRectangle;html=1;whiteSpace=wrap;connectable=0;strokeColor=inherit;overflow=hidden;fillColor=none;top=0;left=0;bottom=0;right=0;pointerEvents=1;fontSize=16;" vertex="1" parent="EUJh6cPpPxXMoMCrmLlQ-5">
          <mxGeometry width="30" height="40" as="geometry">
            <mxRectangle width="30" height="40" as="alternateBounds" />
          </mxGeometry>
        </mxCell>
        <mxCell id="EUJh6cPpPxXMoMCrmLlQ-7" value="provincia" style="shape=partialRectangle;html=1;whiteSpace=wrap;connectable=0;strokeColor=inherit;overflow=hidden;fillColor=none;top=0;left=0;bottom=0;right=0;pointerEvents=1;fontSize=16;" vertex="1" parent="EUJh6cPpPxXMoMCrmLlQ-5">
          <mxGeometry x="30" width="120" height="40" as="geometry">
            <mxRectangle width="120" height="40" as="alternateBounds" />
          </mxGeometry>
        </mxCell>
        <mxCell id="EUJh6cPpPxXMoMCrmLlQ-149" value="varchar(25)" style="shape=partialRectangle;html=1;whiteSpace=wrap;connectable=0;strokeColor=inherit;overflow=hidden;fillColor=none;top=0;left=0;bottom=0;right=0;pointerEvents=1;fontSize=16;" vertex="1" parent="EUJh6cPpPxXMoMCrmLlQ-5">
          <mxGeometry x="150" width="90" height="40" as="geometry">
            <mxRectangle width="90" height="40" as="alternateBounds" />
          </mxGeometry>
        </mxCell>
        <mxCell id="EUJh6cPpPxXMoMCrmLlQ-153" value="S" style="shape=partialRectangle;html=1;whiteSpace=wrap;connectable=0;strokeColor=inherit;overflow=hidden;fillColor=none;top=0;left=0;bottom=0;right=0;pointerEvents=1;fontSize=16;" vertex="1" parent="EUJh6cPpPxXMoMCrmLlQ-5">
          <mxGeometry x="240" width="30" height="40" as="geometry">
            <mxRectangle width="30" height="40" as="alternateBounds" />
          </mxGeometry>
        </mxCell>
        <mxCell id="EUJh6cPpPxXMoMCrmLlQ-8" value="" style="shape=tableRow;horizontal=0;startSize=0;swimlaneHead=0;swimlaneBody=0;strokeColor=inherit;top=0;left=0;bottom=0;right=0;collapsible=0;dropTarget=0;fillColor=none;points=[[0,0.5],[1,0.5]];portConstraint=eastwest;fontSize=16;" vertex="1" parent="EUJh6cPpPxXMoMCrmLlQ-1">
          <mxGeometry y="110" width="270" height="40" as="geometry" />
        </mxCell>
        <mxCell id="EUJh6cPpPxXMoMCrmLlQ-9" value="" style="shape=partialRectangle;html=1;whiteSpace=wrap;connectable=0;strokeColor=inherit;overflow=hidden;fillColor=none;top=0;left=0;bottom=0;right=0;pointerEvents=1;fontSize=16;" vertex="1" parent="EUJh6cPpPxXMoMCrmLlQ-8">
          <mxGeometry width="30" height="40" as="geometry">
            <mxRectangle width="30" height="40" as="alternateBounds" />
          </mxGeometry>
        </mxCell>
        <mxCell id="EUJh6cPpPxXMoMCrmLlQ-10" value="cp" style="shape=partialRectangle;html=1;whiteSpace=wrap;connectable=0;strokeColor=inherit;overflow=hidden;fillColor=none;top=0;left=0;bottom=0;right=0;pointerEvents=1;fontSize=16;" vertex="1" parent="EUJh6cPpPxXMoMCrmLlQ-8">
          <mxGeometry x="30" width="120" height="40" as="geometry">
            <mxRectangle width="120" height="40" as="alternateBounds" />
          </mxGeometry>
        </mxCell>
        <mxCell id="EUJh6cPpPxXMoMCrmLlQ-150" value="char(5)" style="shape=partialRectangle;html=1;whiteSpace=wrap;connectable=0;strokeColor=inherit;overflow=hidden;fillColor=none;top=0;left=0;bottom=0;right=0;pointerEvents=1;fontSize=16;" vertex="1" parent="EUJh6cPpPxXMoMCrmLlQ-8">
          <mxGeometry x="150" width="90" height="40" as="geometry">
            <mxRectangle width="90" height="40" as="alternateBounds" />
          </mxGeometry>
        </mxCell>
        <mxCell id="EUJh6cPpPxXMoMCrmLlQ-154" value="S" style="shape=partialRectangle;html=1;whiteSpace=wrap;connectable=0;strokeColor=inherit;overflow=hidden;fillColor=none;top=0;left=0;bottom=0;right=0;pointerEvents=1;fontSize=16;" vertex="1" parent="EUJh6cPpPxXMoMCrmLlQ-8">
          <mxGeometry x="240" width="30" height="40" as="geometry">
            <mxRectangle width="30" height="40" as="alternateBounds" />
          </mxGeometry>
        </mxCell>
        <mxCell id="EUJh6cPpPxXMoMCrmLlQ-11" style="shape=tableRow;horizontal=0;startSize=0;swimlaneHead=0;swimlaneBody=0;strokeColor=inherit;top=0;left=0;bottom=0;right=0;collapsible=0;dropTarget=0;fillColor=none;points=[[0,0.5],[1,0.5]];portConstraint=eastwest;fontSize=16;" vertex="1" parent="EUJh6cPpPxXMoMCrmLlQ-1">
          <mxGeometry y="150" width="270" height="40" as="geometry" />
        </mxCell>
        <mxCell id="EUJh6cPpPxXMoMCrmLlQ-12" style="shape=partialRectangle;html=1;whiteSpace=wrap;connectable=0;strokeColor=inherit;overflow=hidden;fillColor=none;top=0;left=0;bottom=0;right=0;pointerEvents=1;fontSize=16;" vertex="1" parent="EUJh6cPpPxXMoMCrmLlQ-11">
          <mxGeometry width="30" height="40" as="geometry">
            <mxRectangle width="30" height="40" as="alternateBounds" />
          </mxGeometry>
        </mxCell>
        <mxCell id="EUJh6cPpPxXMoMCrmLlQ-13" value="num_habitantes" style="shape=partialRectangle;html=1;whiteSpace=wrap;connectable=0;strokeColor=inherit;overflow=hidden;fillColor=none;top=0;left=0;bottom=0;right=0;pointerEvents=1;fontSize=16;" vertex="1" parent="EUJh6cPpPxXMoMCrmLlQ-11">
          <mxGeometry x="30" width="120" height="40" as="geometry">
            <mxRectangle width="120" height="40" as="alternateBounds" />
          </mxGeometry>
        </mxCell>
        <mxCell id="EUJh6cPpPxXMoMCrmLlQ-151" value="char(8)" style="shape=partialRectangle;html=1;whiteSpace=wrap;connectable=0;strokeColor=inherit;overflow=hidden;fillColor=none;top=0;left=0;bottom=0;right=0;pointerEvents=1;fontSize=16;" vertex="1" parent="EUJh6cPpPxXMoMCrmLlQ-11">
          <mxGeometry x="150" width="90" height="40" as="geometry">
            <mxRectangle width="90" height="40" as="alternateBounds" />
          </mxGeometry>
        </mxCell>
        <mxCell id="EUJh6cPpPxXMoMCrmLlQ-155" value="S" style="shape=partialRectangle;html=1;whiteSpace=wrap;connectable=0;strokeColor=inherit;overflow=hidden;fillColor=none;top=0;left=0;bottom=0;right=0;pointerEvents=1;fontSize=16;" vertex="1" parent="EUJh6cPpPxXMoMCrmLlQ-11">
          <mxGeometry x="240" width="30" height="40" as="geometry">
            <mxRectangle width="30" height="40" as="alternateBounds" />
          </mxGeometry>
        </mxCell>
        <mxCell id="EUJh6cPpPxXMoMCrmLlQ-14" value="AGENCIA" style="shape=table;startSize=30;container=1;collapsible=0;childLayout=tableLayout;strokeColor=#6c8ebf;fontSize=16;fillColor=#dae8fc;" vertex="1" parent="1">
          <mxGeometry x="440" y="450" width="250" height="230" as="geometry" />
        </mxCell>
        <mxCell id="EUJh6cPpPxXMoMCrmLlQ-15" value="" style="shape=tableRow;horizontal=0;startSize=0;swimlaneHead=0;swimlaneBody=0;strokeColor=inherit;top=0;left=0;bottom=0;right=0;collapsible=0;dropTarget=0;fillColor=none;points=[[0,0.5],[1,0.5]];portConstraint=eastwest;fontSize=16;" vertex="1" parent="EUJh6cPpPxXMoMCrmLlQ-14">
          <mxGeometry y="30" width="250" height="40" as="geometry" />
        </mxCell>
        <mxCell id="EUJh6cPpPxXMoMCrmLlQ-16" value="PK" style="shape=partialRectangle;html=1;whiteSpace=wrap;connectable=0;strokeColor=inherit;overflow=hidden;fillColor=none;top=0;left=0;bottom=0;right=0;pointerEvents=1;fontSize=16;fontStyle=1" vertex="1" parent="EUJh6cPpPxXMoMCrmLlQ-15">
          <mxGeometry width="30" height="40" as="geometry">
            <mxRectangle width="30" height="40" as="alternateBounds" />
          </mxGeometry>
        </mxCell>
        <mxCell id="EUJh6cPpPxXMoMCrmLlQ-17" value="id_agencia" style="shape=partialRectangle;html=1;whiteSpace=wrap;connectable=0;strokeColor=inherit;overflow=hidden;fillColor=none;top=0;left=0;bottom=0;right=0;pointerEvents=1;fontSize=16;fontStyle=1" vertex="1" parent="EUJh6cPpPxXMoMCrmLlQ-15">
          <mxGeometry x="30" width="90" height="40" as="geometry">
            <mxRectangle width="90" height="40" as="alternateBounds" />
          </mxGeometry>
        </mxCell>
        <mxCell id="EUJh6cPpPxXMoMCrmLlQ-235" value="serial" style="shape=partialRectangle;html=1;whiteSpace=wrap;connectable=0;strokeColor=inherit;overflow=hidden;fillColor=none;top=0;left=0;bottom=0;right=0;pointerEvents=1;fontSize=16;fontStyle=1" vertex="1" parent="EUJh6cPpPxXMoMCrmLlQ-15">
          <mxGeometry x="120" width="100" height="40" as="geometry">
            <mxRectangle width="100" height="40" as="alternateBounds" />
          </mxGeometry>
        </mxCell>
        <mxCell id="EUJh6cPpPxXMoMCrmLlQ-240" value="N" style="shape=partialRectangle;html=1;whiteSpace=wrap;connectable=0;strokeColor=inherit;overflow=hidden;fillColor=none;top=0;left=0;bottom=0;right=0;pointerEvents=1;fontSize=16;fontStyle=1" vertex="1" parent="EUJh6cPpPxXMoMCrmLlQ-15">
          <mxGeometry x="220" width="30" height="40" as="geometry">
            <mxRectangle width="30" height="40" as="alternateBounds" />
          </mxGeometry>
        </mxCell>
        <mxCell id="EUJh6cPpPxXMoMCrmLlQ-18" value="" style="shape=tableRow;horizontal=0;startSize=0;swimlaneHead=0;swimlaneBody=0;strokeColor=inherit;top=0;left=0;bottom=0;right=0;collapsible=0;dropTarget=0;fillColor=none;points=[[0,0.5],[1,0.5]];portConstraint=eastwest;fontSize=16;" vertex="1" parent="EUJh6cPpPxXMoMCrmLlQ-14">
          <mxGeometry y="70" width="250" height="40" as="geometry" />
        </mxCell>
        <mxCell id="EUJh6cPpPxXMoMCrmLlQ-19" value="" style="shape=partialRectangle;html=1;whiteSpace=wrap;connectable=0;strokeColor=inherit;overflow=hidden;fillColor=none;top=0;left=0;bottom=0;right=0;pointerEvents=1;fontSize=16;" vertex="1" parent="EUJh6cPpPxXMoMCrmLlQ-18">
          <mxGeometry width="30" height="40" as="geometry">
            <mxRectangle width="30" height="40" as="alternateBounds" />
          </mxGeometry>
        </mxCell>
        <mxCell id="EUJh6cPpPxXMoMCrmLlQ-20" value="nombre" style="shape=partialRectangle;html=1;whiteSpace=wrap;connectable=0;strokeColor=inherit;overflow=hidden;fillColor=none;top=0;left=0;bottom=0;right=0;pointerEvents=1;fontSize=16;" vertex="1" parent="EUJh6cPpPxXMoMCrmLlQ-18">
          <mxGeometry x="30" width="90" height="40" as="geometry">
            <mxRectangle width="90" height="40" as="alternateBounds" />
          </mxGeometry>
        </mxCell>
        <mxCell id="EUJh6cPpPxXMoMCrmLlQ-236" value="varchar(15)" style="shape=partialRectangle;html=1;whiteSpace=wrap;connectable=0;strokeColor=inherit;overflow=hidden;fillColor=none;top=0;left=0;bottom=0;right=0;pointerEvents=1;fontSize=16;" vertex="1" parent="EUJh6cPpPxXMoMCrmLlQ-18">
          <mxGeometry x="120" width="100" height="40" as="geometry">
            <mxRectangle width="100" height="40" as="alternateBounds" />
          </mxGeometry>
        </mxCell>
        <mxCell id="EUJh6cPpPxXMoMCrmLlQ-241" value="N" style="shape=partialRectangle;html=1;whiteSpace=wrap;connectable=0;strokeColor=inherit;overflow=hidden;fillColor=none;top=0;left=0;bottom=0;right=0;pointerEvents=1;fontSize=16;" vertex="1" parent="EUJh6cPpPxXMoMCrmLlQ-18">
          <mxGeometry x="220" width="30" height="40" as="geometry">
            <mxRectangle width="30" height="40" as="alternateBounds" />
          </mxGeometry>
        </mxCell>
        <mxCell id="EUJh6cPpPxXMoMCrmLlQ-21" value="" style="shape=tableRow;horizontal=0;startSize=0;swimlaneHead=0;swimlaneBody=0;strokeColor=inherit;top=0;left=0;bottom=0;right=0;collapsible=0;dropTarget=0;fillColor=none;points=[[0,0.5],[1,0.5]];portConstraint=eastwest;fontSize=16;" vertex="1" parent="EUJh6cPpPxXMoMCrmLlQ-14">
          <mxGeometry y="110" width="250" height="40" as="geometry" />
        </mxCell>
        <mxCell id="EUJh6cPpPxXMoMCrmLlQ-22" value="" style="shape=partialRectangle;html=1;whiteSpace=wrap;connectable=0;strokeColor=inherit;overflow=hidden;fillColor=none;top=0;left=0;bottom=0;right=0;pointerEvents=1;fontSize=16;" vertex="1" parent="EUJh6cPpPxXMoMCrmLlQ-21">
          <mxGeometry width="30" height="40" as="geometry">
            <mxRectangle width="30" height="40" as="alternateBounds" />
          </mxGeometry>
        </mxCell>
        <mxCell id="EUJh6cPpPxXMoMCrmLlQ-23" value="poblacion" style="shape=partialRectangle;html=1;whiteSpace=wrap;connectable=0;strokeColor=inherit;overflow=hidden;fillColor=none;top=0;left=0;bottom=0;right=0;pointerEvents=1;fontSize=16;" vertex="1" parent="EUJh6cPpPxXMoMCrmLlQ-21">
          <mxGeometry x="30" width="90" height="40" as="geometry">
            <mxRectangle width="90" height="40" as="alternateBounds" />
          </mxGeometry>
        </mxCell>
        <mxCell id="EUJh6cPpPxXMoMCrmLlQ-237" value="char(8)" style="shape=partialRectangle;html=1;whiteSpace=wrap;connectable=0;strokeColor=inherit;overflow=hidden;fillColor=none;top=0;left=0;bottom=0;right=0;pointerEvents=1;fontSize=16;" vertex="1" parent="EUJh6cPpPxXMoMCrmLlQ-21">
          <mxGeometry x="120" width="100" height="40" as="geometry">
            <mxRectangle width="100" height="40" as="alternateBounds" />
          </mxGeometry>
        </mxCell>
        <mxCell id="EUJh6cPpPxXMoMCrmLlQ-242" value="S" style="shape=partialRectangle;html=1;whiteSpace=wrap;connectable=0;strokeColor=inherit;overflow=hidden;fillColor=none;top=0;left=0;bottom=0;right=0;pointerEvents=1;fontSize=16;" vertex="1" parent="EUJh6cPpPxXMoMCrmLlQ-21">
          <mxGeometry x="220" width="30" height="40" as="geometry">
            <mxRectangle width="30" height="40" as="alternateBounds" />
          </mxGeometry>
        </mxCell>
        <mxCell id="EUJh6cPpPxXMoMCrmLlQ-24" style="shape=tableRow;horizontal=0;startSize=0;swimlaneHead=0;swimlaneBody=0;strokeColor=inherit;top=0;left=0;bottom=0;right=0;collapsible=0;dropTarget=0;fillColor=none;points=[[0,0.5],[1,0.5]];portConstraint=eastwest;fontSize=16;" vertex="1" parent="EUJh6cPpPxXMoMCrmLlQ-14">
          <mxGeometry y="150" width="250" height="40" as="geometry" />
        </mxCell>
        <mxCell id="EUJh6cPpPxXMoMCrmLlQ-25" style="shape=partialRectangle;html=1;whiteSpace=wrap;connectable=0;strokeColor=inherit;overflow=hidden;fillColor=none;top=0;left=0;bottom=0;right=0;pointerEvents=1;fontSize=16;" vertex="1" parent="EUJh6cPpPxXMoMCrmLlQ-24">
          <mxGeometry width="30" height="40" as="geometry">
            <mxRectangle width="30" height="40" as="alternateBounds" />
          </mxGeometry>
        </mxCell>
        <mxCell id="EUJh6cPpPxXMoMCrmLlQ-26" value="num" style="shape=partialRectangle;html=1;whiteSpace=wrap;connectable=0;strokeColor=inherit;overflow=hidden;fillColor=none;top=0;left=0;bottom=0;right=0;pointerEvents=1;fontSize=16;" vertex="1" parent="EUJh6cPpPxXMoMCrmLlQ-24">
          <mxGeometry x="30" width="90" height="40" as="geometry">
            <mxRectangle width="90" height="40" as="alternateBounds" />
          </mxGeometry>
        </mxCell>
        <mxCell id="EUJh6cPpPxXMoMCrmLlQ-238" value="char(5)" style="shape=partialRectangle;html=1;whiteSpace=wrap;connectable=0;strokeColor=inherit;overflow=hidden;fillColor=none;top=0;left=0;bottom=0;right=0;pointerEvents=1;fontSize=16;" vertex="1" parent="EUJh6cPpPxXMoMCrmLlQ-24">
          <mxGeometry x="120" width="100" height="40" as="geometry">
            <mxRectangle width="100" height="40" as="alternateBounds" />
          </mxGeometry>
        </mxCell>
        <mxCell id="EUJh6cPpPxXMoMCrmLlQ-243" value="S" style="shape=partialRectangle;html=1;whiteSpace=wrap;connectable=0;strokeColor=inherit;overflow=hidden;fillColor=none;top=0;left=0;bottom=0;right=0;pointerEvents=1;fontSize=16;" vertex="1" parent="EUJh6cPpPxXMoMCrmLlQ-24">
          <mxGeometry x="220" width="30" height="40" as="geometry">
            <mxRectangle width="30" height="40" as="alternateBounds" />
          </mxGeometry>
        </mxCell>
        <mxCell id="EUJh6cPpPxXMoMCrmLlQ-27" style="shape=tableRow;horizontal=0;startSize=0;swimlaneHead=0;swimlaneBody=0;strokeColor=inherit;top=0;left=0;bottom=0;right=0;collapsible=0;dropTarget=0;fillColor=none;points=[[0,0.5],[1,0.5]];portConstraint=eastwest;fontSize=16;" vertex="1" parent="EUJh6cPpPxXMoMCrmLlQ-14">
          <mxGeometry y="190" width="250" height="40" as="geometry" />
        </mxCell>
        <mxCell id="EUJh6cPpPxXMoMCrmLlQ-28" style="shape=partialRectangle;html=1;whiteSpace=wrap;connectable=0;strokeColor=inherit;overflow=hidden;fillColor=none;top=0;left=0;bottom=0;right=0;pointerEvents=1;fontSize=16;" vertex="1" parent="EUJh6cPpPxXMoMCrmLlQ-27">
          <mxGeometry width="30" height="40" as="geometry">
            <mxRectangle width="30" height="40" as="alternateBounds" />
          </mxGeometry>
        </mxCell>
        <mxCell id="EUJh6cPpPxXMoMCrmLlQ-29" value="calle" style="shape=partialRectangle;html=1;whiteSpace=wrap;connectable=0;strokeColor=inherit;overflow=hidden;fillColor=none;top=0;left=0;bottom=0;right=0;pointerEvents=1;fontSize=16;" vertex="1" parent="EUJh6cPpPxXMoMCrmLlQ-27">
          <mxGeometry x="30" width="90" height="40" as="geometry">
            <mxRectangle width="90" height="40" as="alternateBounds" />
          </mxGeometry>
        </mxCell>
        <mxCell id="EUJh6cPpPxXMoMCrmLlQ-239" value="varchar(15)" style="shape=partialRectangle;html=1;whiteSpace=wrap;connectable=0;strokeColor=inherit;overflow=hidden;fillColor=none;top=0;left=0;bottom=0;right=0;pointerEvents=1;fontSize=16;" vertex="1" parent="EUJh6cPpPxXMoMCrmLlQ-27">
          <mxGeometry x="120" width="100" height="40" as="geometry">
            <mxRectangle width="100" height="40" as="alternateBounds" />
          </mxGeometry>
        </mxCell>
        <mxCell id="EUJh6cPpPxXMoMCrmLlQ-244" value="S" style="shape=partialRectangle;html=1;whiteSpace=wrap;connectable=0;strokeColor=inherit;overflow=hidden;fillColor=none;top=0;left=0;bottom=0;right=0;pointerEvents=1;fontSize=16;" vertex="1" parent="EUJh6cPpPxXMoMCrmLlQ-27">
          <mxGeometry x="220" width="30" height="40" as="geometry">
            <mxRectangle width="30" height="40" as="alternateBounds" />
          </mxGeometry>
        </mxCell>
        <mxCell id="EUJh6cPpPxXMoMCrmLlQ-30" value="CLIENTE" style="shape=table;startSize=30;container=1;collapsible=0;childLayout=tableLayout;strokeColor=#6c8ebf;fontSize=16;fillColor=#dae8fc;" vertex="1" parent="1">
          <mxGeometry x="1160" y="160" width="280" height="390" as="geometry" />
        </mxCell>
        <mxCell id="EUJh6cPpPxXMoMCrmLlQ-31" value="" style="shape=tableRow;horizontal=0;startSize=0;swimlaneHead=0;swimlaneBody=0;strokeColor=inherit;top=0;left=0;bottom=0;right=0;collapsible=0;dropTarget=0;fillColor=none;points=[[0,0.5],[1,0.5]];portConstraint=eastwest;fontSize=16;" vertex="1" parent="EUJh6cPpPxXMoMCrmLlQ-30">
          <mxGeometry y="30" width="280" height="40" as="geometry" />
        </mxCell>
        <mxCell id="EUJh6cPpPxXMoMCrmLlQ-32" value="PK" style="shape=partialRectangle;html=1;whiteSpace=wrap;connectable=0;strokeColor=inherit;overflow=hidden;fillColor=none;top=0;left=0;bottom=0;right=0;pointerEvents=1;fontSize=16;fontStyle=1" vertex="1" parent="EUJh6cPpPxXMoMCrmLlQ-31">
          <mxGeometry width="28" height="40" as="geometry">
            <mxRectangle width="28" height="40" as="alternateBounds" />
          </mxGeometry>
        </mxCell>
        <mxCell id="EUJh6cPpPxXMoMCrmLlQ-33" value="&lt;b&gt;DNI&lt;/b&gt;" style="shape=partialRectangle;html=1;whiteSpace=wrap;connectable=0;strokeColor=inherit;overflow=hidden;fillColor=none;top=0;left=0;bottom=0;right=0;pointerEvents=1;fontSize=16;" vertex="1" parent="EUJh6cPpPxXMoMCrmLlQ-31">
          <mxGeometry x="28" width="102" height="40" as="geometry">
            <mxRectangle width="102" height="40" as="alternateBounds" />
          </mxGeometry>
        </mxCell>
        <mxCell id="EUJh6cPpPxXMoMCrmLlQ-217" value="char(8)" style="shape=partialRectangle;html=1;whiteSpace=wrap;connectable=0;strokeColor=inherit;overflow=hidden;fillColor=none;top=0;left=0;bottom=0;right=0;pointerEvents=1;fontSize=16;" vertex="1" parent="EUJh6cPpPxXMoMCrmLlQ-31">
          <mxGeometry x="130" width="122" height="40" as="geometry">
            <mxRectangle width="122" height="40" as="alternateBounds" />
          </mxGeometry>
        </mxCell>
        <mxCell id="EUJh6cPpPxXMoMCrmLlQ-226" value="N" style="shape=partialRectangle;html=1;whiteSpace=wrap;connectable=0;strokeColor=inherit;overflow=hidden;fillColor=none;top=0;left=0;bottom=0;right=0;pointerEvents=1;fontSize=16;" vertex="1" parent="EUJh6cPpPxXMoMCrmLlQ-31">
          <mxGeometry x="252" width="28" height="40" as="geometry">
            <mxRectangle width="28" height="40" as="alternateBounds" />
          </mxGeometry>
        </mxCell>
        <mxCell id="EUJh6cPpPxXMoMCrmLlQ-34" value="" style="shape=tableRow;horizontal=0;startSize=0;swimlaneHead=0;swimlaneBody=0;strokeColor=inherit;top=0;left=0;bottom=0;right=0;collapsible=0;dropTarget=0;fillColor=none;points=[[0,0.5],[1,0.5]];portConstraint=eastwest;fontSize=16;" vertex="1" parent="EUJh6cPpPxXMoMCrmLlQ-30">
          <mxGeometry y="70" width="280" height="40" as="geometry" />
        </mxCell>
        <mxCell id="EUJh6cPpPxXMoMCrmLlQ-35" value="" style="shape=partialRectangle;html=1;whiteSpace=wrap;connectable=0;strokeColor=inherit;overflow=hidden;fillColor=none;top=0;left=0;bottom=0;right=0;pointerEvents=1;fontSize=16;" vertex="1" parent="EUJh6cPpPxXMoMCrmLlQ-34">
          <mxGeometry width="28" height="40" as="geometry">
            <mxRectangle width="28" height="40" as="alternateBounds" />
          </mxGeometry>
        </mxCell>
        <mxCell id="EUJh6cPpPxXMoMCrmLlQ-36" value="nombre" style="shape=partialRectangle;html=1;whiteSpace=wrap;connectable=0;strokeColor=inherit;overflow=hidden;fillColor=none;top=0;left=0;bottom=0;right=0;pointerEvents=1;fontSize=16;" vertex="1" parent="EUJh6cPpPxXMoMCrmLlQ-34">
          <mxGeometry x="28" width="102" height="40" as="geometry">
            <mxRectangle width="102" height="40" as="alternateBounds" />
          </mxGeometry>
        </mxCell>
        <mxCell id="EUJh6cPpPxXMoMCrmLlQ-218" value="varchar(15)" style="shape=partialRectangle;html=1;whiteSpace=wrap;connectable=0;strokeColor=inherit;overflow=hidden;fillColor=none;top=0;left=0;bottom=0;right=0;pointerEvents=1;fontSize=16;" vertex="1" parent="EUJh6cPpPxXMoMCrmLlQ-34">
          <mxGeometry x="130" width="122" height="40" as="geometry">
            <mxRectangle width="122" height="40" as="alternateBounds" />
          </mxGeometry>
        </mxCell>
        <mxCell id="EUJh6cPpPxXMoMCrmLlQ-227" value="N" style="shape=partialRectangle;html=1;whiteSpace=wrap;connectable=0;strokeColor=inherit;overflow=hidden;fillColor=none;top=0;left=0;bottom=0;right=0;pointerEvents=1;fontSize=16;" vertex="1" parent="EUJh6cPpPxXMoMCrmLlQ-34">
          <mxGeometry x="252" width="28" height="40" as="geometry">
            <mxRectangle width="28" height="40" as="alternateBounds" />
          </mxGeometry>
        </mxCell>
        <mxCell id="EUJh6cPpPxXMoMCrmLlQ-37" value="" style="shape=tableRow;horizontal=0;startSize=0;swimlaneHead=0;swimlaneBody=0;strokeColor=inherit;top=0;left=0;bottom=0;right=0;collapsible=0;dropTarget=0;fillColor=none;points=[[0,0.5],[1,0.5]];portConstraint=eastwest;fontSize=16;" vertex="1" parent="EUJh6cPpPxXMoMCrmLlQ-30">
          <mxGeometry y="110" width="280" height="40" as="geometry" />
        </mxCell>
        <mxCell id="EUJh6cPpPxXMoMCrmLlQ-38" value="" style="shape=partialRectangle;html=1;whiteSpace=wrap;connectable=0;strokeColor=inherit;overflow=hidden;fillColor=none;top=0;left=0;bottom=0;right=0;pointerEvents=1;fontSize=16;" vertex="1" parent="EUJh6cPpPxXMoMCrmLlQ-37">
          <mxGeometry width="28" height="40" as="geometry">
            <mxRectangle width="28" height="40" as="alternateBounds" />
          </mxGeometry>
        </mxCell>
        <mxCell id="EUJh6cPpPxXMoMCrmLlQ-39" value="apaterno" style="shape=partialRectangle;html=1;whiteSpace=wrap;connectable=0;strokeColor=inherit;overflow=hidden;fillColor=none;top=0;left=0;bottom=0;right=0;pointerEvents=1;fontSize=16;" vertex="1" parent="EUJh6cPpPxXMoMCrmLlQ-37">
          <mxGeometry x="28" width="102" height="40" as="geometry">
            <mxRectangle width="102" height="40" as="alternateBounds" />
          </mxGeometry>
        </mxCell>
        <mxCell id="EUJh6cPpPxXMoMCrmLlQ-219" value="varchar(15)" style="shape=partialRectangle;html=1;whiteSpace=wrap;connectable=0;strokeColor=inherit;overflow=hidden;fillColor=none;top=0;left=0;bottom=0;right=0;pointerEvents=1;fontSize=16;" vertex="1" parent="EUJh6cPpPxXMoMCrmLlQ-37">
          <mxGeometry x="130" width="122" height="40" as="geometry">
            <mxRectangle width="122" height="40" as="alternateBounds" />
          </mxGeometry>
        </mxCell>
        <mxCell id="EUJh6cPpPxXMoMCrmLlQ-228" value="N" style="shape=partialRectangle;html=1;whiteSpace=wrap;connectable=0;strokeColor=inherit;overflow=hidden;fillColor=none;top=0;left=0;bottom=0;right=0;pointerEvents=1;fontSize=16;" vertex="1" parent="EUJh6cPpPxXMoMCrmLlQ-37">
          <mxGeometry x="252" width="28" height="40" as="geometry">
            <mxRectangle width="28" height="40" as="alternateBounds" />
          </mxGeometry>
        </mxCell>
        <mxCell id="EUJh6cPpPxXMoMCrmLlQ-40" style="shape=tableRow;horizontal=0;startSize=0;swimlaneHead=0;swimlaneBody=0;strokeColor=inherit;top=0;left=0;bottom=0;right=0;collapsible=0;dropTarget=0;fillColor=none;points=[[0,0.5],[1,0.5]];portConstraint=eastwest;fontSize=16;" vertex="1" parent="EUJh6cPpPxXMoMCrmLlQ-30">
          <mxGeometry y="150" width="280" height="40" as="geometry" />
        </mxCell>
        <mxCell id="EUJh6cPpPxXMoMCrmLlQ-41" style="shape=partialRectangle;html=1;whiteSpace=wrap;connectable=0;strokeColor=inherit;overflow=hidden;fillColor=none;top=0;left=0;bottom=0;right=0;pointerEvents=1;fontSize=16;" vertex="1" parent="EUJh6cPpPxXMoMCrmLlQ-40">
          <mxGeometry width="28" height="40" as="geometry">
            <mxRectangle width="28" height="40" as="alternateBounds" />
          </mxGeometry>
        </mxCell>
        <mxCell id="EUJh6cPpPxXMoMCrmLlQ-42" value="amaterno" style="shape=partialRectangle;html=1;whiteSpace=wrap;connectable=0;strokeColor=inherit;overflow=hidden;fillColor=none;top=0;left=0;bottom=0;right=0;pointerEvents=1;fontSize=16;" vertex="1" parent="EUJh6cPpPxXMoMCrmLlQ-40">
          <mxGeometry x="28" width="102" height="40" as="geometry">
            <mxRectangle width="102" height="40" as="alternateBounds" />
          </mxGeometry>
        </mxCell>
        <mxCell id="EUJh6cPpPxXMoMCrmLlQ-220" value="varchar(15)" style="shape=partialRectangle;html=1;whiteSpace=wrap;connectable=0;strokeColor=inherit;overflow=hidden;fillColor=none;top=0;left=0;bottom=0;right=0;pointerEvents=1;fontSize=16;" vertex="1" parent="EUJh6cPpPxXMoMCrmLlQ-40">
          <mxGeometry x="130" width="122" height="40" as="geometry">
            <mxRectangle width="122" height="40" as="alternateBounds" />
          </mxGeometry>
        </mxCell>
        <mxCell id="EUJh6cPpPxXMoMCrmLlQ-229" value="S" style="shape=partialRectangle;html=1;whiteSpace=wrap;connectable=0;strokeColor=inherit;overflow=hidden;fillColor=none;top=0;left=0;bottom=0;right=0;pointerEvents=1;fontSize=16;" vertex="1" parent="EUJh6cPpPxXMoMCrmLlQ-40">
          <mxGeometry x="252" width="28" height="40" as="geometry">
            <mxRectangle width="28" height="40" as="alternateBounds" />
          </mxGeometry>
        </mxCell>
        <mxCell id="EUJh6cPpPxXMoMCrmLlQ-43" style="shape=tableRow;horizontal=0;startSize=0;swimlaneHead=0;swimlaneBody=0;strokeColor=inherit;top=0;left=0;bottom=0;right=0;collapsible=0;dropTarget=0;fillColor=none;points=[[0,0.5],[1,0.5]];portConstraint=eastwest;fontSize=16;" vertex="1" parent="EUJh6cPpPxXMoMCrmLlQ-30">
          <mxGeometry y="190" width="280" height="40" as="geometry" />
        </mxCell>
        <mxCell id="EUJh6cPpPxXMoMCrmLlQ-44" style="shape=partialRectangle;html=1;whiteSpace=wrap;connectable=0;strokeColor=inherit;overflow=hidden;fillColor=none;top=0;left=0;bottom=0;right=0;pointerEvents=1;fontSize=16;" vertex="1" parent="EUJh6cPpPxXMoMCrmLlQ-43">
          <mxGeometry width="28" height="40" as="geometry">
            <mxRectangle width="28" height="40" as="alternateBounds" />
          </mxGeometry>
        </mxCell>
        <mxCell id="EUJh6cPpPxXMoMCrmLlQ-45" value="telefono" style="shape=partialRectangle;html=1;whiteSpace=wrap;connectable=0;strokeColor=inherit;overflow=hidden;fillColor=none;top=0;left=0;bottom=0;right=0;pointerEvents=1;fontSize=16;" vertex="1" parent="EUJh6cPpPxXMoMCrmLlQ-43">
          <mxGeometry x="28" width="102" height="40" as="geometry">
            <mxRectangle width="102" height="40" as="alternateBounds" />
          </mxGeometry>
        </mxCell>
        <mxCell id="EUJh6cPpPxXMoMCrmLlQ-221" value="char(10)" style="shape=partialRectangle;html=1;whiteSpace=wrap;connectable=0;strokeColor=inherit;overflow=hidden;fillColor=none;top=0;left=0;bottom=0;right=0;pointerEvents=1;fontSize=16;" vertex="1" parent="EUJh6cPpPxXMoMCrmLlQ-43">
          <mxGeometry x="130" width="122" height="40" as="geometry">
            <mxRectangle width="122" height="40" as="alternateBounds" />
          </mxGeometry>
        </mxCell>
        <mxCell id="EUJh6cPpPxXMoMCrmLlQ-230" value="N" style="shape=partialRectangle;html=1;whiteSpace=wrap;connectable=0;strokeColor=inherit;overflow=hidden;fillColor=none;top=0;left=0;bottom=0;right=0;pointerEvents=1;fontSize=16;" vertex="1" parent="EUJh6cPpPxXMoMCrmLlQ-43">
          <mxGeometry x="252" width="28" height="40" as="geometry">
            <mxRectangle width="28" height="40" as="alternateBounds" />
          </mxGeometry>
        </mxCell>
        <mxCell id="EUJh6cPpPxXMoMCrmLlQ-46" style="shape=tableRow;horizontal=0;startSize=0;swimlaneHead=0;swimlaneBody=0;strokeColor=inherit;top=0;left=0;bottom=0;right=0;collapsible=0;dropTarget=0;fillColor=none;points=[[0,0.5],[1,0.5]];portConstraint=eastwest;fontSize=16;" vertex="1" parent="EUJh6cPpPxXMoMCrmLlQ-30">
          <mxGeometry y="230" width="280" height="40" as="geometry" />
        </mxCell>
        <mxCell id="EUJh6cPpPxXMoMCrmLlQ-47" style="shape=partialRectangle;html=1;whiteSpace=wrap;connectable=0;strokeColor=inherit;overflow=hidden;fillColor=none;top=0;left=0;bottom=0;right=0;pointerEvents=1;fontSize=16;" vertex="1" parent="EUJh6cPpPxXMoMCrmLlQ-46">
          <mxGeometry width="28" height="40" as="geometry">
            <mxRectangle width="28" height="40" as="alternateBounds" />
          </mxGeometry>
        </mxCell>
        <mxCell id="EUJh6cPpPxXMoMCrmLlQ-48" value="clave_cliente" style="shape=partialRectangle;html=1;whiteSpace=wrap;connectable=0;strokeColor=inherit;overflow=hidden;fillColor=none;top=0;left=0;bottom=0;right=0;pointerEvents=1;fontSize=16;" vertex="1" parent="EUJh6cPpPxXMoMCrmLlQ-46">
          <mxGeometry x="28" width="102" height="40" as="geometry">
            <mxRectangle width="102" height="40" as="alternateBounds" />
          </mxGeometry>
        </mxCell>
        <mxCell id="EUJh6cPpPxXMoMCrmLlQ-222" value="char(10)" style="shape=partialRectangle;html=1;whiteSpace=wrap;connectable=0;strokeColor=inherit;overflow=hidden;fillColor=none;top=0;left=0;bottom=0;right=0;pointerEvents=1;fontSize=16;" vertex="1" parent="EUJh6cPpPxXMoMCrmLlQ-46">
          <mxGeometry x="130" width="122" height="40" as="geometry">
            <mxRectangle width="122" height="40" as="alternateBounds" />
          </mxGeometry>
        </mxCell>
        <mxCell id="EUJh6cPpPxXMoMCrmLlQ-231" value="N" style="shape=partialRectangle;html=1;whiteSpace=wrap;connectable=0;strokeColor=inherit;overflow=hidden;fillColor=none;top=0;left=0;bottom=0;right=0;pointerEvents=1;fontSize=16;" vertex="1" parent="EUJh6cPpPxXMoMCrmLlQ-46">
          <mxGeometry x="252" width="28" height="40" as="geometry">
            <mxRectangle width="28" height="40" as="alternateBounds" />
          </mxGeometry>
        </mxCell>
        <mxCell id="EUJh6cPpPxXMoMCrmLlQ-49" style="shape=tableRow;horizontal=0;startSize=0;swimlaneHead=0;swimlaneBody=0;strokeColor=inherit;top=0;left=0;bottom=0;right=0;collapsible=0;dropTarget=0;fillColor=none;points=[[0,0.5],[1,0.5]];portConstraint=eastwest;fontSize=16;" vertex="1" parent="EUJh6cPpPxXMoMCrmLlQ-30">
          <mxGeometry y="270" width="280" height="40" as="geometry" />
        </mxCell>
        <mxCell id="EUJh6cPpPxXMoMCrmLlQ-50" style="shape=partialRectangle;html=1;whiteSpace=wrap;connectable=0;strokeColor=inherit;overflow=hidden;fillColor=none;top=0;left=0;bottom=0;right=0;pointerEvents=1;fontSize=16;" vertex="1" parent="EUJh6cPpPxXMoMCrmLlQ-49">
          <mxGeometry width="28" height="40" as="geometry">
            <mxRectangle width="28" height="40" as="alternateBounds" />
          </mxGeometry>
        </mxCell>
        <mxCell id="EUJh6cPpPxXMoMCrmLlQ-51" value="ciudad" style="shape=partialRectangle;html=1;whiteSpace=wrap;connectable=0;strokeColor=inherit;overflow=hidden;fillColor=none;top=0;left=0;bottom=0;right=0;pointerEvents=1;fontSize=16;" vertex="1" parent="EUJh6cPpPxXMoMCrmLlQ-49">
          <mxGeometry x="28" width="102" height="40" as="geometry">
            <mxRectangle width="102" height="40" as="alternateBounds" />
          </mxGeometry>
        </mxCell>
        <mxCell id="EUJh6cPpPxXMoMCrmLlQ-223" value="varchar(15)" style="shape=partialRectangle;html=1;whiteSpace=wrap;connectable=0;strokeColor=inherit;overflow=hidden;fillColor=none;top=0;left=0;bottom=0;right=0;pointerEvents=1;fontSize=16;" vertex="1" parent="EUJh6cPpPxXMoMCrmLlQ-49">
          <mxGeometry x="130" width="122" height="40" as="geometry">
            <mxRectangle width="122" height="40" as="alternateBounds" />
          </mxGeometry>
        </mxCell>
        <mxCell id="EUJh6cPpPxXMoMCrmLlQ-232" value="S" style="shape=partialRectangle;html=1;whiteSpace=wrap;connectable=0;strokeColor=inherit;overflow=hidden;fillColor=none;top=0;left=0;bottom=0;right=0;pointerEvents=1;fontSize=16;" vertex="1" parent="EUJh6cPpPxXMoMCrmLlQ-49">
          <mxGeometry x="252" width="28" height="40" as="geometry">
            <mxRectangle width="28" height="40" as="alternateBounds" />
          </mxGeometry>
        </mxCell>
        <mxCell id="EUJh6cPpPxXMoMCrmLlQ-52" style="shape=tableRow;horizontal=0;startSize=0;swimlaneHead=0;swimlaneBody=0;strokeColor=inherit;top=0;left=0;bottom=0;right=0;collapsible=0;dropTarget=0;fillColor=none;points=[[0,0.5],[1,0.5]];portConstraint=eastwest;fontSize=16;" vertex="1" parent="EUJh6cPpPxXMoMCrmLlQ-30">
          <mxGeometry y="310" width="280" height="40" as="geometry" />
        </mxCell>
        <mxCell id="EUJh6cPpPxXMoMCrmLlQ-53" style="shape=partialRectangle;html=1;whiteSpace=wrap;connectable=0;strokeColor=inherit;overflow=hidden;fillColor=none;top=0;left=0;bottom=0;right=0;pointerEvents=1;fontSize=16;" vertex="1" parent="EUJh6cPpPxXMoMCrmLlQ-52">
          <mxGeometry width="28" height="40" as="geometry">
            <mxRectangle width="28" height="40" as="alternateBounds" />
          </mxGeometry>
        </mxCell>
        <mxCell id="EUJh6cPpPxXMoMCrmLlQ-54" value="calle" style="shape=partialRectangle;html=1;whiteSpace=wrap;connectable=0;strokeColor=inherit;overflow=hidden;fillColor=none;top=0;left=0;bottom=0;right=0;pointerEvents=1;fontSize=16;" vertex="1" parent="EUJh6cPpPxXMoMCrmLlQ-52">
          <mxGeometry x="28" width="102" height="40" as="geometry">
            <mxRectangle width="102" height="40" as="alternateBounds" />
          </mxGeometry>
        </mxCell>
        <mxCell id="EUJh6cPpPxXMoMCrmLlQ-224" value="varchar(15)" style="shape=partialRectangle;html=1;whiteSpace=wrap;connectable=0;strokeColor=inherit;overflow=hidden;fillColor=none;top=0;left=0;bottom=0;right=0;pointerEvents=1;fontSize=16;" vertex="1" parent="EUJh6cPpPxXMoMCrmLlQ-52">
          <mxGeometry x="130" width="122" height="40" as="geometry">
            <mxRectangle width="122" height="40" as="alternateBounds" />
          </mxGeometry>
        </mxCell>
        <mxCell id="EUJh6cPpPxXMoMCrmLlQ-233" value="S" style="shape=partialRectangle;html=1;whiteSpace=wrap;connectable=0;strokeColor=inherit;overflow=hidden;fillColor=none;top=0;left=0;bottom=0;right=0;pointerEvents=1;fontSize=16;" vertex="1" parent="EUJh6cPpPxXMoMCrmLlQ-52">
          <mxGeometry x="252" width="28" height="40" as="geometry">
            <mxRectangle width="28" height="40" as="alternateBounds" />
          </mxGeometry>
        </mxCell>
        <mxCell id="EUJh6cPpPxXMoMCrmLlQ-55" style="shape=tableRow;horizontal=0;startSize=0;swimlaneHead=0;swimlaneBody=0;strokeColor=inherit;top=0;left=0;bottom=0;right=0;collapsible=0;dropTarget=0;fillColor=none;points=[[0,0.5],[1,0.5]];portConstraint=eastwest;fontSize=16;" vertex="1" parent="EUJh6cPpPxXMoMCrmLlQ-30">
          <mxGeometry y="350" width="280" height="40" as="geometry" />
        </mxCell>
        <mxCell id="EUJh6cPpPxXMoMCrmLlQ-56" style="shape=partialRectangle;html=1;whiteSpace=wrap;connectable=0;strokeColor=inherit;overflow=hidden;fillColor=none;top=0;left=0;bottom=0;right=0;pointerEvents=1;fontSize=16;" vertex="1" parent="EUJh6cPpPxXMoMCrmLlQ-55">
          <mxGeometry width="28" height="40" as="geometry">
            <mxRectangle width="28" height="40" as="alternateBounds" />
          </mxGeometry>
        </mxCell>
        <mxCell id="EUJh6cPpPxXMoMCrmLlQ-57" value="num" style="shape=partialRectangle;html=1;whiteSpace=wrap;connectable=0;strokeColor=inherit;overflow=hidden;fillColor=none;top=0;left=0;bottom=0;right=0;pointerEvents=1;fontSize=16;" vertex="1" parent="EUJh6cPpPxXMoMCrmLlQ-55">
          <mxGeometry x="28" width="102" height="40" as="geometry">
            <mxRectangle width="102" height="40" as="alternateBounds" />
          </mxGeometry>
        </mxCell>
        <mxCell id="EUJh6cPpPxXMoMCrmLlQ-225" value="char(5)" style="shape=partialRectangle;html=1;whiteSpace=wrap;connectable=0;strokeColor=inherit;overflow=hidden;fillColor=none;top=0;left=0;bottom=0;right=0;pointerEvents=1;fontSize=16;" vertex="1" parent="EUJh6cPpPxXMoMCrmLlQ-55">
          <mxGeometry x="130" width="122" height="40" as="geometry">
            <mxRectangle width="122" height="40" as="alternateBounds" />
          </mxGeometry>
        </mxCell>
        <mxCell id="EUJh6cPpPxXMoMCrmLlQ-234" value="S" style="shape=partialRectangle;html=1;whiteSpace=wrap;connectable=0;strokeColor=inherit;overflow=hidden;fillColor=none;top=0;left=0;bottom=0;right=0;pointerEvents=1;fontSize=16;" vertex="1" parent="EUJh6cPpPxXMoMCrmLlQ-55">
          <mxGeometry x="252" width="28" height="40" as="geometry">
            <mxRectangle width="28" height="40" as="alternateBounds" />
          </mxGeometry>
        </mxCell>
        <mxCell id="EUJh6cPpPxXMoMCrmLlQ-58" value="MOTOCICLETA" style="shape=table;startSize=30;container=1;collapsible=0;childLayout=tableLayout;strokeColor=#6c8ebf;fontSize=16;fillColor=#dae8fc;" vertex="1" parent="1">
          <mxGeometry x="410" y="-30" width="280" height="420" as="geometry" />
        </mxCell>
        <mxCell id="EUJh6cPpPxXMoMCrmLlQ-59" value="" style="shape=tableRow;horizontal=0;startSize=0;swimlaneHead=0;swimlaneBody=0;strokeColor=inherit;top=0;left=0;bottom=0;right=0;collapsible=0;dropTarget=0;fillColor=none;points=[[0,0.5],[1,0.5]];portConstraint=eastwest;fontSize=16;" vertex="1" parent="EUJh6cPpPxXMoMCrmLlQ-58">
          <mxGeometry y="30" width="280" height="40" as="geometry" />
        </mxCell>
        <mxCell id="EUJh6cPpPxXMoMCrmLlQ-60" value="PK" style="shape=partialRectangle;html=1;whiteSpace=wrap;connectable=0;strokeColor=inherit;overflow=hidden;fillColor=none;top=0;left=0;bottom=0;right=0;pointerEvents=1;fontSize=16;fontStyle=1" vertex="1" parent="EUJh6cPpPxXMoMCrmLlQ-59">
          <mxGeometry width="29" height="40" as="geometry">
            <mxRectangle width="29" height="40" as="alternateBounds" />
          </mxGeometry>
        </mxCell>
        <mxCell id="EUJh6cPpPxXMoMCrmLlQ-61" value="matricula" style="shape=partialRectangle;html=1;whiteSpace=wrap;connectable=0;strokeColor=inherit;overflow=hidden;fillColor=none;top=0;left=0;bottom=0;right=0;pointerEvents=1;fontSize=16;fontStyle=1" vertex="1" parent="EUJh6cPpPxXMoMCrmLlQ-59">
          <mxGeometry x="29" width="121" height="40" as="geometry">
            <mxRectangle width="121" height="40" as="alternateBounds" />
          </mxGeometry>
        </mxCell>
        <mxCell id="EUJh6cPpPxXMoMCrmLlQ-168" value="char(8)" style="shape=partialRectangle;html=1;whiteSpace=wrap;connectable=0;strokeColor=inherit;overflow=hidden;fillColor=none;top=0;left=0;bottom=0;right=0;pointerEvents=1;fontSize=16;fontStyle=1" vertex="1" parent="EUJh6cPpPxXMoMCrmLlQ-59">
          <mxGeometry x="150" width="101" height="40" as="geometry">
            <mxRectangle width="101" height="40" as="alternateBounds" />
          </mxGeometry>
        </mxCell>
        <mxCell id="EUJh6cPpPxXMoMCrmLlQ-178" value="N" style="shape=partialRectangle;html=1;whiteSpace=wrap;connectable=0;strokeColor=inherit;overflow=hidden;fillColor=none;top=0;left=0;bottom=0;right=0;pointerEvents=1;fontSize=16;fontStyle=1" vertex="1" parent="EUJh6cPpPxXMoMCrmLlQ-59">
          <mxGeometry x="251" width="29" height="40" as="geometry">
            <mxRectangle width="29" height="40" as="alternateBounds" />
          </mxGeometry>
        </mxCell>
        <mxCell id="EUJh6cPpPxXMoMCrmLlQ-62" value="" style="shape=tableRow;horizontal=0;startSize=0;swimlaneHead=0;swimlaneBody=0;strokeColor=inherit;top=0;left=0;bottom=0;right=0;collapsible=0;dropTarget=0;fillColor=none;points=[[0,0.5],[1,0.5]];portConstraint=eastwest;fontSize=16;" vertex="1" parent="EUJh6cPpPxXMoMCrmLlQ-58">
          <mxGeometry y="70" width="280" height="40" as="geometry" />
        </mxCell>
        <mxCell id="EUJh6cPpPxXMoMCrmLlQ-63" value="" style="shape=partialRectangle;html=1;whiteSpace=wrap;connectable=0;strokeColor=inherit;overflow=hidden;fillColor=none;top=0;left=0;bottom=0;right=0;pointerEvents=1;fontSize=16;" vertex="1" parent="EUJh6cPpPxXMoMCrmLlQ-62">
          <mxGeometry width="29" height="40" as="geometry">
            <mxRectangle width="29" height="40" as="alternateBounds" />
          </mxGeometry>
        </mxCell>
        <mxCell id="EUJh6cPpPxXMoMCrmLlQ-64" value="garaje" style="shape=partialRectangle;html=1;whiteSpace=wrap;connectable=0;strokeColor=inherit;overflow=hidden;fillColor=none;top=0;left=0;bottom=0;right=0;pointerEvents=1;fontSize=16;" vertex="1" parent="EUJh6cPpPxXMoMCrmLlQ-62">
          <mxGeometry x="29" width="121" height="40" as="geometry">
            <mxRectangle width="121" height="40" as="alternateBounds" />
          </mxGeometry>
        </mxCell>
        <mxCell id="EUJh6cPpPxXMoMCrmLlQ-169" value="varchar(20)" style="shape=partialRectangle;html=1;whiteSpace=wrap;connectable=0;strokeColor=inherit;overflow=hidden;fillColor=none;top=0;left=0;bottom=0;right=0;pointerEvents=1;fontSize=16;" vertex="1" parent="EUJh6cPpPxXMoMCrmLlQ-62">
          <mxGeometry x="150" width="101" height="40" as="geometry">
            <mxRectangle width="101" height="40" as="alternateBounds" />
          </mxGeometry>
        </mxCell>
        <mxCell id="EUJh6cPpPxXMoMCrmLlQ-179" value="N" style="shape=partialRectangle;html=1;whiteSpace=wrap;connectable=0;strokeColor=inherit;overflow=hidden;fillColor=none;top=0;left=0;bottom=0;right=0;pointerEvents=1;fontSize=16;" vertex="1" parent="EUJh6cPpPxXMoMCrmLlQ-62">
          <mxGeometry x="251" width="29" height="40" as="geometry">
            <mxRectangle width="29" height="40" as="alternateBounds" />
          </mxGeometry>
        </mxCell>
        <mxCell id="EUJh6cPpPxXMoMCrmLlQ-65" value="" style="shape=tableRow;horizontal=0;startSize=0;swimlaneHead=0;swimlaneBody=0;strokeColor=inherit;top=0;left=0;bottom=0;right=0;collapsible=0;dropTarget=0;fillColor=none;points=[[0,0.5],[1,0.5]];portConstraint=eastwest;fontSize=16;" vertex="1" parent="EUJh6cPpPxXMoMCrmLlQ-58">
          <mxGeometry y="110" width="280" height="40" as="geometry" />
        </mxCell>
        <mxCell id="EUJh6cPpPxXMoMCrmLlQ-66" value="" style="shape=partialRectangle;html=1;whiteSpace=wrap;connectable=0;strokeColor=inherit;overflow=hidden;fillColor=none;top=0;left=0;bottom=0;right=0;pointerEvents=1;fontSize=16;" vertex="1" parent="EUJh6cPpPxXMoMCrmLlQ-65">
          <mxGeometry width="29" height="40" as="geometry">
            <mxRectangle width="29" height="40" as="alternateBounds" />
          </mxGeometry>
        </mxCell>
        <mxCell id="EUJh6cPpPxXMoMCrmLlQ-67" value="modelo" style="shape=partialRectangle;html=1;whiteSpace=wrap;connectable=0;strokeColor=inherit;overflow=hidden;fillColor=none;top=0;left=0;bottom=0;right=0;pointerEvents=1;fontSize=16;" vertex="1" parent="EUJh6cPpPxXMoMCrmLlQ-65">
          <mxGeometry x="29" width="121" height="40" as="geometry">
            <mxRectangle width="121" height="40" as="alternateBounds" />
          </mxGeometry>
        </mxCell>
        <mxCell id="EUJh6cPpPxXMoMCrmLlQ-170" value="varchar(15)" style="shape=partialRectangle;html=1;whiteSpace=wrap;connectable=0;strokeColor=inherit;overflow=hidden;fillColor=none;top=0;left=0;bottom=0;right=0;pointerEvents=1;fontSize=16;" vertex="1" parent="EUJh6cPpPxXMoMCrmLlQ-65">
          <mxGeometry x="150" width="101" height="40" as="geometry">
            <mxRectangle width="101" height="40" as="alternateBounds" />
          </mxGeometry>
        </mxCell>
        <mxCell id="EUJh6cPpPxXMoMCrmLlQ-180" value="N" style="shape=partialRectangle;html=1;whiteSpace=wrap;connectable=0;strokeColor=inherit;overflow=hidden;fillColor=none;top=0;left=0;bottom=0;right=0;pointerEvents=1;fontSize=16;" vertex="1" parent="EUJh6cPpPxXMoMCrmLlQ-65">
          <mxGeometry x="251" width="29" height="40" as="geometry">
            <mxRectangle width="29" height="40" as="alternateBounds" />
          </mxGeometry>
        </mxCell>
        <mxCell id="EUJh6cPpPxXMoMCrmLlQ-68" style="shape=tableRow;horizontal=0;startSize=0;swimlaneHead=0;swimlaneBody=0;strokeColor=inherit;top=0;left=0;bottom=0;right=0;collapsible=0;dropTarget=0;fillColor=none;points=[[0,0.5],[1,0.5]];portConstraint=eastwest;fontSize=16;" vertex="1" parent="EUJh6cPpPxXMoMCrmLlQ-58">
          <mxGeometry y="150" width="280" height="40" as="geometry" />
        </mxCell>
        <mxCell id="EUJh6cPpPxXMoMCrmLlQ-69" style="shape=partialRectangle;html=1;whiteSpace=wrap;connectable=0;strokeColor=inherit;overflow=hidden;fillColor=none;top=0;left=0;bottom=0;right=0;pointerEvents=1;fontSize=16;" vertex="1" parent="EUJh6cPpPxXMoMCrmLlQ-68">
          <mxGeometry width="29" height="40" as="geometry">
            <mxRectangle width="29" height="40" as="alternateBounds" />
          </mxGeometry>
        </mxCell>
        <mxCell id="EUJh6cPpPxXMoMCrmLlQ-70" value="marca" style="shape=partialRectangle;html=1;whiteSpace=wrap;connectable=0;strokeColor=inherit;overflow=hidden;fillColor=none;top=0;left=0;bottom=0;right=0;pointerEvents=1;fontSize=16;" vertex="1" parent="EUJh6cPpPxXMoMCrmLlQ-68">
          <mxGeometry x="29" width="121" height="40" as="geometry">
            <mxRectangle width="121" height="40" as="alternateBounds" />
          </mxGeometry>
        </mxCell>
        <mxCell id="EUJh6cPpPxXMoMCrmLlQ-171" value="varchar(15)" style="shape=partialRectangle;html=1;whiteSpace=wrap;connectable=0;strokeColor=inherit;overflow=hidden;fillColor=none;top=0;left=0;bottom=0;right=0;pointerEvents=1;fontSize=16;" vertex="1" parent="EUJh6cPpPxXMoMCrmLlQ-68">
          <mxGeometry x="150" width="101" height="40" as="geometry">
            <mxRectangle width="101" height="40" as="alternateBounds" />
          </mxGeometry>
        </mxCell>
        <mxCell id="EUJh6cPpPxXMoMCrmLlQ-181" value="N" style="shape=partialRectangle;html=1;whiteSpace=wrap;connectable=0;strokeColor=inherit;overflow=hidden;fillColor=none;top=0;left=0;bottom=0;right=0;pointerEvents=1;fontSize=16;" vertex="1" parent="EUJh6cPpPxXMoMCrmLlQ-68">
          <mxGeometry x="251" width="29" height="40" as="geometry">
            <mxRectangle width="29" height="40" as="alternateBounds" />
          </mxGeometry>
        </mxCell>
        <mxCell id="EUJh6cPpPxXMoMCrmLlQ-71" style="shape=tableRow;horizontal=0;startSize=0;swimlaneHead=0;swimlaneBody=0;strokeColor=inherit;top=0;left=0;bottom=0;right=0;collapsible=0;dropTarget=0;fillColor=none;points=[[0,0.5],[1,0.5]];portConstraint=eastwest;fontSize=16;" vertex="1" parent="EUJh6cPpPxXMoMCrmLlQ-58">
          <mxGeometry y="190" width="280" height="40" as="geometry" />
        </mxCell>
        <mxCell id="EUJh6cPpPxXMoMCrmLlQ-72" style="shape=partialRectangle;html=1;whiteSpace=wrap;connectable=0;strokeColor=inherit;overflow=hidden;fillColor=none;top=0;left=0;bottom=0;right=0;pointerEvents=1;fontSize=16;" vertex="1" parent="EUJh6cPpPxXMoMCrmLlQ-71">
          <mxGeometry width="29" height="40" as="geometry">
            <mxRectangle width="29" height="40" as="alternateBounds" />
          </mxGeometry>
        </mxCell>
        <mxCell id="EUJh6cPpPxXMoMCrmLlQ-73" value="color" style="shape=partialRectangle;html=1;whiteSpace=wrap;connectable=0;strokeColor=inherit;overflow=hidden;fillColor=none;top=0;left=0;bottom=0;right=0;pointerEvents=1;fontSize=16;" vertex="1" parent="EUJh6cPpPxXMoMCrmLlQ-71">
          <mxGeometry x="29" width="121" height="40" as="geometry">
            <mxRectangle width="121" height="40" as="alternateBounds" />
          </mxGeometry>
        </mxCell>
        <mxCell id="EUJh6cPpPxXMoMCrmLlQ-172" value="varchar(15)" style="shape=partialRectangle;html=1;whiteSpace=wrap;connectable=0;strokeColor=inherit;overflow=hidden;fillColor=none;top=0;left=0;bottom=0;right=0;pointerEvents=1;fontSize=16;" vertex="1" parent="EUJh6cPpPxXMoMCrmLlQ-71">
          <mxGeometry x="150" width="101" height="40" as="geometry">
            <mxRectangle width="101" height="40" as="alternateBounds" />
          </mxGeometry>
        </mxCell>
        <mxCell id="EUJh6cPpPxXMoMCrmLlQ-182" value="S" style="shape=partialRectangle;html=1;whiteSpace=wrap;connectable=0;strokeColor=inherit;overflow=hidden;fillColor=none;top=0;left=0;bottom=0;right=0;pointerEvents=1;fontSize=16;" vertex="1" parent="EUJh6cPpPxXMoMCrmLlQ-71">
          <mxGeometry x="251" width="29" height="40" as="geometry">
            <mxRectangle width="29" height="40" as="alternateBounds" />
          </mxGeometry>
        </mxCell>
        <mxCell id="EUJh6cPpPxXMoMCrmLlQ-74" style="shape=tableRow;horizontal=0;startSize=0;swimlaneHead=0;swimlaneBody=0;strokeColor=inherit;top=0;left=0;bottom=0;right=0;collapsible=0;dropTarget=0;fillColor=none;points=[[0,0.5],[1,0.5]];portConstraint=eastwest;fontSize=16;" vertex="1" parent="EUJh6cPpPxXMoMCrmLlQ-58">
          <mxGeometry y="230" width="280" height="40" as="geometry" />
        </mxCell>
        <mxCell id="EUJh6cPpPxXMoMCrmLlQ-75" style="shape=partialRectangle;html=1;whiteSpace=wrap;connectable=0;strokeColor=inherit;overflow=hidden;fillColor=none;top=0;left=0;bottom=0;right=0;pointerEvents=1;fontSize=16;" vertex="1" parent="EUJh6cPpPxXMoMCrmLlQ-74">
          <mxGeometry width="29" height="40" as="geometry">
            <mxRectangle width="29" height="40" as="alternateBounds" />
          </mxGeometry>
        </mxCell>
        <mxCell id="EUJh6cPpPxXMoMCrmLlQ-76" value="num_bastidor" style="shape=partialRectangle;html=1;whiteSpace=wrap;connectable=0;strokeColor=inherit;overflow=hidden;fillColor=none;top=0;left=0;bottom=0;right=0;pointerEvents=1;fontSize=16;" vertex="1" parent="EUJh6cPpPxXMoMCrmLlQ-74">
          <mxGeometry x="29" width="121" height="40" as="geometry">
            <mxRectangle width="121" height="40" as="alternateBounds" />
          </mxGeometry>
        </mxCell>
        <mxCell id="EUJh6cPpPxXMoMCrmLlQ-173" value="char(17)" style="shape=partialRectangle;html=1;whiteSpace=wrap;connectable=0;strokeColor=inherit;overflow=hidden;fillColor=none;top=0;left=0;bottom=0;right=0;pointerEvents=1;fontSize=16;" vertex="1" parent="EUJh6cPpPxXMoMCrmLlQ-74">
          <mxGeometry x="150" width="101" height="40" as="geometry">
            <mxRectangle width="101" height="40" as="alternateBounds" />
          </mxGeometry>
        </mxCell>
        <mxCell id="EUJh6cPpPxXMoMCrmLlQ-183" value="N" style="shape=partialRectangle;html=1;whiteSpace=wrap;connectable=0;strokeColor=inherit;overflow=hidden;fillColor=none;top=0;left=0;bottom=0;right=0;pointerEvents=1;fontSize=16;" vertex="1" parent="EUJh6cPpPxXMoMCrmLlQ-74">
          <mxGeometry x="251" width="29" height="40" as="geometry">
            <mxRectangle width="29" height="40" as="alternateBounds" />
          </mxGeometry>
        </mxCell>
        <mxCell id="EUJh6cPpPxXMoMCrmLlQ-77" style="shape=tableRow;horizontal=0;startSize=0;swimlaneHead=0;swimlaneBody=0;strokeColor=inherit;top=0;left=0;bottom=0;right=0;collapsible=0;dropTarget=0;fillColor=none;points=[[0,0.5],[1,0.5]];portConstraint=eastwest;fontSize=16;" vertex="1" parent="EUJh6cPpPxXMoMCrmLlQ-58">
          <mxGeometry y="270" width="280" height="40" as="geometry" />
        </mxCell>
        <mxCell id="EUJh6cPpPxXMoMCrmLlQ-78" style="shape=partialRectangle;html=1;whiteSpace=wrap;connectable=0;strokeColor=inherit;overflow=hidden;fillColor=none;top=0;left=0;bottom=0;right=0;pointerEvents=1;fontSize=16;" vertex="1" parent="EUJh6cPpPxXMoMCrmLlQ-77">
          <mxGeometry width="29" height="40" as="geometry">
            <mxRectangle width="29" height="40" as="alternateBounds" />
          </mxGeometry>
        </mxCell>
        <mxCell id="EUJh6cPpPxXMoMCrmLlQ-79" value="fecha_en_garaje" style="shape=partialRectangle;html=1;whiteSpace=wrap;connectable=0;strokeColor=inherit;overflow=hidden;fillColor=none;top=0;left=0;bottom=0;right=0;pointerEvents=1;fontSize=16;" vertex="1" parent="EUJh6cPpPxXMoMCrmLlQ-77">
          <mxGeometry x="29" width="121" height="40" as="geometry">
            <mxRectangle width="121" height="40" as="alternateBounds" />
          </mxGeometry>
        </mxCell>
        <mxCell id="EUJh6cPpPxXMoMCrmLlQ-174" value="timestamp" style="shape=partialRectangle;html=1;whiteSpace=wrap;connectable=0;strokeColor=inherit;overflow=hidden;fillColor=none;top=0;left=0;bottom=0;right=0;pointerEvents=1;fontSize=16;" vertex="1" parent="EUJh6cPpPxXMoMCrmLlQ-77">
          <mxGeometry x="150" width="101" height="40" as="geometry">
            <mxRectangle width="101" height="40" as="alternateBounds" />
          </mxGeometry>
        </mxCell>
        <mxCell id="EUJh6cPpPxXMoMCrmLlQ-184" value="N" style="shape=partialRectangle;html=1;whiteSpace=wrap;connectable=0;strokeColor=inherit;overflow=hidden;fillColor=none;top=0;left=0;bottom=0;right=0;pointerEvents=1;fontSize=16;" vertex="1" parent="EUJh6cPpPxXMoMCrmLlQ-77">
          <mxGeometry x="251" width="29" height="40" as="geometry">
            <mxRectangle width="29" height="40" as="alternateBounds" />
          </mxGeometry>
        </mxCell>
        <mxCell id="EUJh6cPpPxXMoMCrmLlQ-80" style="shape=tableRow;horizontal=0;startSize=0;swimlaneHead=0;swimlaneBody=0;strokeColor=inherit;top=0;left=0;bottom=0;right=0;collapsible=0;dropTarget=0;fillColor=none;points=[[0,0.5],[1,0.5]];portConstraint=eastwest;fontSize=16;fontStyle=1" vertex="1" parent="EUJh6cPpPxXMoMCrmLlQ-58">
          <mxGeometry y="310" width="280" height="30" as="geometry" />
        </mxCell>
        <mxCell id="EUJh6cPpPxXMoMCrmLlQ-81" value="FK" style="shape=partialRectangle;html=1;whiteSpace=wrap;connectable=0;strokeColor=inherit;overflow=hidden;fillColor=none;top=0;left=0;bottom=0;right=0;pointerEvents=1;fontSize=16;fontStyle=1" vertex="1" parent="EUJh6cPpPxXMoMCrmLlQ-80">
          <mxGeometry width="29" height="30" as="geometry">
            <mxRectangle width="29" height="30" as="alternateBounds" />
          </mxGeometry>
        </mxCell>
        <mxCell id="EUJh6cPpPxXMoMCrmLlQ-82" value="id_garaje" style="shape=partialRectangle;html=1;whiteSpace=wrap;connectable=0;strokeColor=inherit;overflow=hidden;fillColor=none;top=0;left=0;bottom=0;right=0;pointerEvents=1;fontSize=16;fontStyle=1" vertex="1" parent="EUJh6cPpPxXMoMCrmLlQ-80">
          <mxGeometry x="29" width="121" height="30" as="geometry">
            <mxRectangle width="121" height="30" as="alternateBounds" />
          </mxGeometry>
        </mxCell>
        <mxCell id="EUJh6cPpPxXMoMCrmLlQ-175" value="int" style="shape=partialRectangle;html=1;whiteSpace=wrap;connectable=0;strokeColor=inherit;overflow=hidden;fillColor=none;top=0;left=0;bottom=0;right=0;pointerEvents=1;fontSize=16;fontStyle=1" vertex="1" parent="EUJh6cPpPxXMoMCrmLlQ-80">
          <mxGeometry x="150" width="101" height="30" as="geometry">
            <mxRectangle width="101" height="30" as="alternateBounds" />
          </mxGeometry>
        </mxCell>
        <mxCell id="EUJh6cPpPxXMoMCrmLlQ-185" value="N" style="shape=partialRectangle;html=1;whiteSpace=wrap;connectable=0;strokeColor=inherit;overflow=hidden;fillColor=none;top=0;left=0;bottom=0;right=0;pointerEvents=1;fontSize=16;fontStyle=1" vertex="1" parent="EUJh6cPpPxXMoMCrmLlQ-80">
          <mxGeometry x="251" width="29" height="30" as="geometry">
            <mxRectangle width="29" height="30" as="alternateBounds" />
          </mxGeometry>
        </mxCell>
        <mxCell id="EUJh6cPpPxXMoMCrmLlQ-83" style="shape=tableRow;horizontal=0;startSize=0;swimlaneHead=0;swimlaneBody=0;strokeColor=inherit;top=0;left=0;bottom=0;right=0;collapsible=0;dropTarget=0;fillColor=none;points=[[0,0.5],[1,0.5]];portConstraint=eastwest;fontSize=16;fontStyle=1" vertex="1" parent="EUJh6cPpPxXMoMCrmLlQ-58">
          <mxGeometry y="340" width="280" height="40" as="geometry" />
        </mxCell>
        <mxCell id="EUJh6cPpPxXMoMCrmLlQ-84" value="FK" style="shape=partialRectangle;html=1;whiteSpace=wrap;connectable=0;strokeColor=inherit;overflow=hidden;fillColor=none;top=0;left=0;bottom=0;right=0;pointerEvents=1;fontSize=16;fontStyle=1" vertex="1" parent="EUJh6cPpPxXMoMCrmLlQ-83">
          <mxGeometry width="29" height="40" as="geometry">
            <mxRectangle width="29" height="40" as="alternateBounds" />
          </mxGeometry>
        </mxCell>
        <mxCell id="EUJh6cPpPxXMoMCrmLlQ-85" value="nombre_ciudad" style="shape=partialRectangle;html=1;whiteSpace=wrap;connectable=0;strokeColor=inherit;overflow=hidden;fillColor=none;top=0;left=0;bottom=0;right=0;pointerEvents=1;fontSize=16;fontStyle=1" vertex="1" parent="EUJh6cPpPxXMoMCrmLlQ-83">
          <mxGeometry x="29" width="121" height="40" as="geometry">
            <mxRectangle width="121" height="40" as="alternateBounds" />
          </mxGeometry>
        </mxCell>
        <mxCell id="EUJh6cPpPxXMoMCrmLlQ-176" value="char(15)" style="shape=partialRectangle;html=1;whiteSpace=wrap;connectable=0;strokeColor=inherit;overflow=hidden;fillColor=none;top=0;left=0;bottom=0;right=0;pointerEvents=1;fontSize=16;fontStyle=1" vertex="1" parent="EUJh6cPpPxXMoMCrmLlQ-83">
          <mxGeometry x="150" width="101" height="40" as="geometry">
            <mxRectangle width="101" height="40" as="alternateBounds" />
          </mxGeometry>
        </mxCell>
        <mxCell id="EUJh6cPpPxXMoMCrmLlQ-186" value="N" style="shape=partialRectangle;html=1;whiteSpace=wrap;connectable=0;strokeColor=inherit;overflow=hidden;fillColor=none;top=0;left=0;bottom=0;right=0;pointerEvents=1;fontSize=16;fontStyle=1" vertex="1" parent="EUJh6cPpPxXMoMCrmLlQ-83">
          <mxGeometry x="251" width="29" height="40" as="geometry">
            <mxRectangle width="29" height="40" as="alternateBounds" />
          </mxGeometry>
        </mxCell>
        <mxCell id="EUJh6cPpPxXMoMCrmLlQ-86" style="shape=tableRow;horizontal=0;startSize=0;swimlaneHead=0;swimlaneBody=0;strokeColor=inherit;top=0;left=0;bottom=0;right=0;collapsible=0;dropTarget=0;fillColor=none;points=[[0,0.5],[1,0.5]];portConstraint=eastwest;fontSize=16;fontStyle=1" vertex="1" parent="EUJh6cPpPxXMoMCrmLlQ-58">
          <mxGeometry y="380" width="280" height="40" as="geometry" />
        </mxCell>
        <mxCell id="EUJh6cPpPxXMoMCrmLlQ-87" value="FK" style="shape=partialRectangle;html=1;whiteSpace=wrap;connectable=0;strokeColor=inherit;overflow=hidden;fillColor=none;top=0;left=0;bottom=0;right=0;pointerEvents=1;fontSize=16;fontStyle=1" vertex="1" parent="EUJh6cPpPxXMoMCrmLlQ-86">
          <mxGeometry width="29" height="40" as="geometry">
            <mxRectangle width="29" height="40" as="alternateBounds" />
          </mxGeometry>
        </mxCell>
        <mxCell id="EUJh6cPpPxXMoMCrmLlQ-88" value="id_agencia" style="shape=partialRectangle;html=1;whiteSpace=wrap;connectable=0;strokeColor=inherit;overflow=hidden;fillColor=none;top=0;left=0;bottom=0;right=0;pointerEvents=1;fontSize=16;fontStyle=1" vertex="1" parent="EUJh6cPpPxXMoMCrmLlQ-86">
          <mxGeometry x="29" width="121" height="40" as="geometry">
            <mxRectangle width="121" height="40" as="alternateBounds" />
          </mxGeometry>
        </mxCell>
        <mxCell id="EUJh6cPpPxXMoMCrmLlQ-177" value="int" style="shape=partialRectangle;html=1;whiteSpace=wrap;connectable=0;strokeColor=inherit;overflow=hidden;fillColor=none;top=0;left=0;bottom=0;right=0;pointerEvents=1;fontSize=16;fontStyle=1" vertex="1" parent="EUJh6cPpPxXMoMCrmLlQ-86">
          <mxGeometry x="150" width="101" height="40" as="geometry">
            <mxRectangle width="101" height="40" as="alternateBounds" />
          </mxGeometry>
        </mxCell>
        <mxCell id="EUJh6cPpPxXMoMCrmLlQ-187" value="N" style="shape=partialRectangle;html=1;whiteSpace=wrap;connectable=0;strokeColor=inherit;overflow=hidden;fillColor=none;top=0;left=0;bottom=0;right=0;pointerEvents=1;fontSize=16;fontStyle=1" vertex="1" parent="EUJh6cPpPxXMoMCrmLlQ-86">
          <mxGeometry x="251" width="29" height="40" as="geometry">
            <mxRectangle width="29" height="40" as="alternateBounds" />
          </mxGeometry>
        </mxCell>
        <mxCell id="EUJh6cPpPxXMoMCrmLlQ-89" value="GARAJE" style="shape=table;startSize=30;container=1;collapsible=0;childLayout=tableLayout;strokeColor=#6c8ebf;fontSize=16;fillColor=#dae8fc;" vertex="1" parent="1">
          <mxGeometry x="80" y="50" width="270" height="270" as="geometry" />
        </mxCell>
        <mxCell id="EUJh6cPpPxXMoMCrmLlQ-90" value="" style="shape=tableRow;horizontal=0;startSize=0;swimlaneHead=0;swimlaneBody=0;strokeColor=inherit;top=0;left=0;bottom=0;right=0;collapsible=0;dropTarget=0;fillColor=none;points=[[0,0.5],[1,0.5]];portConstraint=eastwest;fontSize=16;" vertex="1" parent="EUJh6cPpPxXMoMCrmLlQ-89">
          <mxGeometry y="30" width="270" height="40" as="geometry" />
        </mxCell>
        <mxCell id="EUJh6cPpPxXMoMCrmLlQ-91" value="PK" style="shape=partialRectangle;html=1;whiteSpace=wrap;connectable=0;strokeColor=inherit;overflow=hidden;fillColor=none;top=0;left=0;bottom=0;right=0;pointerEvents=1;fontSize=16;fontStyle=1" vertex="1" parent="EUJh6cPpPxXMoMCrmLlQ-90">
          <mxGeometry width="35" height="40" as="geometry">
            <mxRectangle width="35" height="40" as="alternateBounds" />
          </mxGeometry>
        </mxCell>
        <mxCell id="EUJh6cPpPxXMoMCrmLlQ-92" value="id_garaje" style="shape=partialRectangle;html=1;whiteSpace=wrap;connectable=0;strokeColor=inherit;overflow=hidden;fillColor=none;top=0;left=0;bottom=0;right=0;pointerEvents=1;fontSize=16;fontStyle=1" vertex="1" parent="EUJh6cPpPxXMoMCrmLlQ-90">
          <mxGeometry x="35" width="125" height="40" as="geometry">
            <mxRectangle width="125" height="40" as="alternateBounds" />
          </mxGeometry>
        </mxCell>
        <mxCell id="EUJh6cPpPxXMoMCrmLlQ-156" value="serial" style="shape=partialRectangle;html=1;whiteSpace=wrap;connectable=0;strokeColor=inherit;overflow=hidden;fillColor=none;top=0;left=0;bottom=0;right=0;pointerEvents=1;fontSize=16;fontStyle=1" vertex="1" parent="EUJh6cPpPxXMoMCrmLlQ-90">
          <mxGeometry x="160" width="84" height="40" as="geometry">
            <mxRectangle width="84" height="40" as="alternateBounds" />
          </mxGeometry>
        </mxCell>
        <mxCell id="EUJh6cPpPxXMoMCrmLlQ-162" value="N" style="shape=partialRectangle;html=1;whiteSpace=wrap;connectable=0;strokeColor=inherit;overflow=hidden;fillColor=none;top=0;left=0;bottom=0;right=0;pointerEvents=1;fontSize=16;fontStyle=1" vertex="1" parent="EUJh6cPpPxXMoMCrmLlQ-90">
          <mxGeometry x="244" width="26" height="40" as="geometry">
            <mxRectangle width="26" height="40" as="alternateBounds" />
          </mxGeometry>
        </mxCell>
        <mxCell id="EUJh6cPpPxXMoMCrmLlQ-93" value="" style="shape=tableRow;horizontal=0;startSize=0;swimlaneHead=0;swimlaneBody=0;strokeColor=inherit;top=0;left=0;bottom=0;right=0;collapsible=0;dropTarget=0;fillColor=none;points=[[0,0.5],[1,0.5]];portConstraint=eastwest;fontSize=16;" vertex="1" parent="EUJh6cPpPxXMoMCrmLlQ-89">
          <mxGeometry y="70" width="270" height="40" as="geometry" />
        </mxCell>
        <mxCell id="EUJh6cPpPxXMoMCrmLlQ-94" value="" style="shape=partialRectangle;html=1;whiteSpace=wrap;connectable=0;strokeColor=inherit;overflow=hidden;fillColor=none;top=0;left=0;bottom=0;right=0;pointerEvents=1;fontSize=16;" vertex="1" parent="EUJh6cPpPxXMoMCrmLlQ-93">
          <mxGeometry width="35" height="40" as="geometry">
            <mxRectangle width="35" height="40" as="alternateBounds" />
          </mxGeometry>
        </mxCell>
        <mxCell id="EUJh6cPpPxXMoMCrmLlQ-95" value="nombre" style="shape=partialRectangle;html=1;whiteSpace=wrap;connectable=0;strokeColor=inherit;overflow=hidden;fillColor=none;top=0;left=0;bottom=0;right=0;pointerEvents=1;fontSize=16;" vertex="1" parent="EUJh6cPpPxXMoMCrmLlQ-93">
          <mxGeometry x="35" width="125" height="40" as="geometry">
            <mxRectangle width="125" height="40" as="alternateBounds" />
          </mxGeometry>
        </mxCell>
        <mxCell id="EUJh6cPpPxXMoMCrmLlQ-157" value="varchar(20)" style="shape=partialRectangle;html=1;whiteSpace=wrap;connectable=0;strokeColor=inherit;overflow=hidden;fillColor=none;top=0;left=0;bottom=0;right=0;pointerEvents=1;fontSize=16;" vertex="1" parent="EUJh6cPpPxXMoMCrmLlQ-93">
          <mxGeometry x="160" width="84" height="40" as="geometry">
            <mxRectangle width="84" height="40" as="alternateBounds" />
          </mxGeometry>
        </mxCell>
        <mxCell id="EUJh6cPpPxXMoMCrmLlQ-163" value="N" style="shape=partialRectangle;html=1;whiteSpace=wrap;connectable=0;strokeColor=inherit;overflow=hidden;fillColor=none;top=0;left=0;bottom=0;right=0;pointerEvents=1;fontSize=16;" vertex="1" parent="EUJh6cPpPxXMoMCrmLlQ-93">
          <mxGeometry x="244" width="26" height="40" as="geometry">
            <mxRectangle width="26" height="40" as="alternateBounds" />
          </mxGeometry>
        </mxCell>
        <mxCell id="EUJh6cPpPxXMoMCrmLlQ-96" value="" style="shape=tableRow;horizontal=0;startSize=0;swimlaneHead=0;swimlaneBody=0;strokeColor=inherit;top=0;left=0;bottom=0;right=0;collapsible=0;dropTarget=0;fillColor=none;points=[[0,0.5],[1,0.5]];portConstraint=eastwest;fontSize=16;" vertex="1" parent="EUJh6cPpPxXMoMCrmLlQ-89">
          <mxGeometry y="110" width="270" height="40" as="geometry" />
        </mxCell>
        <mxCell id="EUJh6cPpPxXMoMCrmLlQ-97" value="" style="shape=partialRectangle;html=1;whiteSpace=wrap;connectable=0;strokeColor=inherit;overflow=hidden;fillColor=none;top=0;left=0;bottom=0;right=0;pointerEvents=1;fontSize=16;" vertex="1" parent="EUJh6cPpPxXMoMCrmLlQ-96">
          <mxGeometry width="35" height="40" as="geometry">
            <mxRectangle width="35" height="40" as="alternateBounds" />
          </mxGeometry>
        </mxCell>
        <mxCell id="EUJh6cPpPxXMoMCrmLlQ-98" value="calle" style="shape=partialRectangle;html=1;whiteSpace=wrap;connectable=0;strokeColor=inherit;overflow=hidden;fillColor=none;top=0;left=0;bottom=0;right=0;pointerEvents=1;fontSize=16;" vertex="1" parent="EUJh6cPpPxXMoMCrmLlQ-96">
          <mxGeometry x="35" width="125" height="40" as="geometry">
            <mxRectangle width="125" height="40" as="alternateBounds" />
          </mxGeometry>
        </mxCell>
        <mxCell id="EUJh6cPpPxXMoMCrmLlQ-158" value="varchar(20)" style="shape=partialRectangle;html=1;whiteSpace=wrap;connectable=0;strokeColor=inherit;overflow=hidden;fillColor=none;top=0;left=0;bottom=0;right=0;pointerEvents=1;fontSize=16;" vertex="1" parent="EUJh6cPpPxXMoMCrmLlQ-96">
          <mxGeometry x="160" width="84" height="40" as="geometry">
            <mxRectangle width="84" height="40" as="alternateBounds" />
          </mxGeometry>
        </mxCell>
        <mxCell id="EUJh6cPpPxXMoMCrmLlQ-164" value="S" style="shape=partialRectangle;html=1;whiteSpace=wrap;connectable=0;strokeColor=inherit;overflow=hidden;fillColor=none;top=0;left=0;bottom=0;right=0;pointerEvents=1;fontSize=16;" vertex="1" parent="EUJh6cPpPxXMoMCrmLlQ-96">
          <mxGeometry x="244" width="26" height="40" as="geometry">
            <mxRectangle width="26" height="40" as="alternateBounds" />
          </mxGeometry>
        </mxCell>
        <mxCell id="EUJh6cPpPxXMoMCrmLlQ-99" style="shape=tableRow;horizontal=0;startSize=0;swimlaneHead=0;swimlaneBody=0;strokeColor=inherit;top=0;left=0;bottom=0;right=0;collapsible=0;dropTarget=0;fillColor=none;points=[[0,0.5],[1,0.5]];portConstraint=eastwest;fontSize=16;" vertex="1" parent="EUJh6cPpPxXMoMCrmLlQ-89">
          <mxGeometry y="150" width="270" height="40" as="geometry" />
        </mxCell>
        <mxCell id="EUJh6cPpPxXMoMCrmLlQ-100" style="shape=partialRectangle;html=1;whiteSpace=wrap;connectable=0;strokeColor=inherit;overflow=hidden;fillColor=none;top=0;left=0;bottom=0;right=0;pointerEvents=1;fontSize=16;" vertex="1" parent="EUJh6cPpPxXMoMCrmLlQ-99">
          <mxGeometry width="35" height="40" as="geometry">
            <mxRectangle width="35" height="40" as="alternateBounds" />
          </mxGeometry>
        </mxCell>
        <mxCell id="EUJh6cPpPxXMoMCrmLlQ-101" value="num" style="shape=partialRectangle;html=1;whiteSpace=wrap;connectable=0;strokeColor=inherit;overflow=hidden;fillColor=none;top=0;left=0;bottom=0;right=0;pointerEvents=1;fontSize=16;" vertex="1" parent="EUJh6cPpPxXMoMCrmLlQ-99">
          <mxGeometry x="35" width="125" height="40" as="geometry">
            <mxRectangle width="125" height="40" as="alternateBounds" />
          </mxGeometry>
        </mxCell>
        <mxCell id="EUJh6cPpPxXMoMCrmLlQ-159" value="char(5)" style="shape=partialRectangle;html=1;whiteSpace=wrap;connectable=0;strokeColor=inherit;overflow=hidden;fillColor=none;top=0;left=0;bottom=0;right=0;pointerEvents=1;fontSize=16;" vertex="1" parent="EUJh6cPpPxXMoMCrmLlQ-99">
          <mxGeometry x="160" width="84" height="40" as="geometry">
            <mxRectangle width="84" height="40" as="alternateBounds" />
          </mxGeometry>
        </mxCell>
        <mxCell id="EUJh6cPpPxXMoMCrmLlQ-165" value="S" style="shape=partialRectangle;html=1;whiteSpace=wrap;connectable=0;strokeColor=inherit;overflow=hidden;fillColor=none;top=0;left=0;bottom=0;right=0;pointerEvents=1;fontSize=16;" vertex="1" parent="EUJh6cPpPxXMoMCrmLlQ-99">
          <mxGeometry x="244" width="26" height="40" as="geometry">
            <mxRectangle width="26" height="40" as="alternateBounds" />
          </mxGeometry>
        </mxCell>
        <mxCell id="EUJh6cPpPxXMoMCrmLlQ-102" style="shape=tableRow;horizontal=0;startSize=0;swimlaneHead=0;swimlaneBody=0;strokeColor=inherit;top=0;left=0;bottom=0;right=0;collapsible=0;dropTarget=0;fillColor=none;points=[[0,0.5],[1,0.5]];portConstraint=eastwest;fontSize=16;fontStyle=1" vertex="1" parent="EUJh6cPpPxXMoMCrmLlQ-89">
          <mxGeometry y="190" width="270" height="40" as="geometry" />
        </mxCell>
        <mxCell id="EUJh6cPpPxXMoMCrmLlQ-103" value="FK" style="shape=partialRectangle;html=1;whiteSpace=wrap;connectable=0;strokeColor=inherit;overflow=hidden;fillColor=none;top=0;left=0;bottom=0;right=0;pointerEvents=1;fontSize=16;fontStyle=1" vertex="1" parent="EUJh6cPpPxXMoMCrmLlQ-102">
          <mxGeometry width="35" height="40" as="geometry">
            <mxRectangle width="35" height="40" as="alternateBounds" />
          </mxGeometry>
        </mxCell>
        <mxCell id="EUJh6cPpPxXMoMCrmLlQ-104" value="id_agencia" style="shape=partialRectangle;html=1;whiteSpace=wrap;connectable=0;strokeColor=inherit;overflow=hidden;fillColor=none;top=0;left=0;bottom=0;right=0;pointerEvents=1;fontSize=16;fontStyle=1" vertex="1" parent="EUJh6cPpPxXMoMCrmLlQ-102">
          <mxGeometry x="35" width="125" height="40" as="geometry">
            <mxRectangle width="125" height="40" as="alternateBounds" />
          </mxGeometry>
        </mxCell>
        <mxCell id="EUJh6cPpPxXMoMCrmLlQ-160" value="int" style="shape=partialRectangle;html=1;whiteSpace=wrap;connectable=0;strokeColor=inherit;overflow=hidden;fillColor=none;top=0;left=0;bottom=0;right=0;pointerEvents=1;fontSize=16;fontStyle=1" vertex="1" parent="EUJh6cPpPxXMoMCrmLlQ-102">
          <mxGeometry x="160" width="84" height="40" as="geometry">
            <mxRectangle width="84" height="40" as="alternateBounds" />
          </mxGeometry>
        </mxCell>
        <mxCell id="EUJh6cPpPxXMoMCrmLlQ-166" value="N" style="shape=partialRectangle;html=1;whiteSpace=wrap;connectable=0;strokeColor=inherit;overflow=hidden;fillColor=none;top=0;left=0;bottom=0;right=0;pointerEvents=1;fontSize=16;fontStyle=1" vertex="1" parent="EUJh6cPpPxXMoMCrmLlQ-102">
          <mxGeometry x="244" width="26" height="40" as="geometry">
            <mxRectangle width="26" height="40" as="alternateBounds" />
          </mxGeometry>
        </mxCell>
        <mxCell id="EUJh6cPpPxXMoMCrmLlQ-105" style="shape=tableRow;horizontal=0;startSize=0;swimlaneHead=0;swimlaneBody=0;strokeColor=inherit;top=0;left=0;bottom=0;right=0;collapsible=0;dropTarget=0;fillColor=none;points=[[0,0.5],[1,0.5]];portConstraint=eastwest;fontSize=16;fontStyle=1" vertex="1" parent="EUJh6cPpPxXMoMCrmLlQ-89">
          <mxGeometry y="230" width="270" height="40" as="geometry" />
        </mxCell>
        <mxCell id="EUJh6cPpPxXMoMCrmLlQ-106" value="PFK" style="shape=partialRectangle;html=1;whiteSpace=wrap;connectable=0;strokeColor=inherit;overflow=hidden;fillColor=none;top=0;left=0;bottom=0;right=0;pointerEvents=1;fontSize=16;fontStyle=1" vertex="1" parent="EUJh6cPpPxXMoMCrmLlQ-105">
          <mxGeometry width="35" height="40" as="geometry">
            <mxRectangle width="35" height="40" as="alternateBounds" />
          </mxGeometry>
        </mxCell>
        <mxCell id="EUJh6cPpPxXMoMCrmLlQ-107" value="nombre_ciudad" style="shape=partialRectangle;html=1;whiteSpace=wrap;connectable=0;strokeColor=inherit;overflow=hidden;fillColor=none;top=0;left=0;bottom=0;right=0;pointerEvents=1;fontSize=16;fontStyle=1" vertex="1" parent="EUJh6cPpPxXMoMCrmLlQ-105">
          <mxGeometry x="35" width="125" height="40" as="geometry">
            <mxRectangle width="125" height="40" as="alternateBounds" />
          </mxGeometry>
        </mxCell>
        <mxCell id="EUJh6cPpPxXMoMCrmLlQ-161" value="char(15)" style="shape=partialRectangle;html=1;whiteSpace=wrap;connectable=0;strokeColor=inherit;overflow=hidden;fillColor=none;top=0;left=0;bottom=0;right=0;pointerEvents=1;fontSize=16;fontStyle=1" vertex="1" parent="EUJh6cPpPxXMoMCrmLlQ-105">
          <mxGeometry x="160" width="84" height="40" as="geometry">
            <mxRectangle width="84" height="40" as="alternateBounds" />
          </mxGeometry>
        </mxCell>
        <mxCell id="EUJh6cPpPxXMoMCrmLlQ-167" value="N" style="shape=partialRectangle;html=1;whiteSpace=wrap;connectable=0;strokeColor=inherit;overflow=hidden;fillColor=none;top=0;left=0;bottom=0;right=0;pointerEvents=1;fontSize=16;fontStyle=1" vertex="1" parent="EUJh6cPpPxXMoMCrmLlQ-105">
          <mxGeometry x="244" width="26" height="40" as="geometry">
            <mxRectangle width="26" height="40" as="alternateBounds" />
          </mxGeometry>
        </mxCell>
        <mxCell id="EUJh6cPpPxXMoMCrmLlQ-108" value="ALQUILER_MOTO" style="shape=table;startSize=30;container=1;collapsible=0;childLayout=tableLayout;strokeColor=#6c8ebf;fontSize=16;fillColor=#dae8fc;" vertex="1" parent="1">
          <mxGeometry x="810" y="210" width="270" height="350" as="geometry" />
        </mxCell>
        <mxCell id="EUJh6cPpPxXMoMCrmLlQ-109" value="" style="shape=tableRow;horizontal=0;startSize=0;swimlaneHead=0;swimlaneBody=0;strokeColor=inherit;top=0;left=0;bottom=0;right=0;collapsible=0;dropTarget=0;fillColor=none;points=[[0,0.5],[1,0.5]];portConstraint=eastwest;fontSize=16;fontStyle=1" vertex="1" parent="EUJh6cPpPxXMoMCrmLlQ-108">
          <mxGeometry y="30" width="270" height="40" as="geometry" />
        </mxCell>
        <mxCell id="EUJh6cPpPxXMoMCrmLlQ-110" value="PK" style="shape=partialRectangle;html=1;whiteSpace=wrap;connectable=0;strokeColor=inherit;overflow=hidden;fillColor=none;top=0;left=0;bottom=0;right=0;pointerEvents=1;fontSize=16;fontStyle=1" vertex="1" parent="EUJh6cPpPxXMoMCrmLlQ-109">
          <mxGeometry width="39" height="40" as="geometry">
            <mxRectangle width="39" height="40" as="alternateBounds" />
          </mxGeometry>
        </mxCell>
        <mxCell id="EUJh6cPpPxXMoMCrmLlQ-111" value="fecha_inicio" style="shape=partialRectangle;html=1;whiteSpace=wrap;connectable=0;strokeColor=inherit;overflow=hidden;fillColor=none;top=0;left=0;bottom=0;right=0;pointerEvents=1;fontSize=16;fontStyle=1" vertex="1" parent="EUJh6cPpPxXMoMCrmLlQ-109">
          <mxGeometry x="39" width="106" height="40" as="geometry">
            <mxRectangle width="106" height="40" as="alternateBounds" />
          </mxGeometry>
        </mxCell>
        <mxCell id="EUJh6cPpPxXMoMCrmLlQ-188" value="timestamp" style="shape=partialRectangle;html=1;whiteSpace=wrap;connectable=0;strokeColor=inherit;overflow=hidden;fillColor=none;top=0;left=0;bottom=0;right=0;pointerEvents=1;fontSize=16;fontStyle=1" vertex="1" parent="EUJh6cPpPxXMoMCrmLlQ-109">
          <mxGeometry x="145" width="95" height="40" as="geometry">
            <mxRectangle width="95" height="40" as="alternateBounds" />
          </mxGeometry>
        </mxCell>
        <mxCell id="EUJh6cPpPxXMoMCrmLlQ-196" value="N" style="shape=partialRectangle;html=1;whiteSpace=wrap;connectable=0;strokeColor=inherit;overflow=hidden;fillColor=none;top=0;left=0;bottom=0;right=0;pointerEvents=1;fontSize=16;fontStyle=1" vertex="1" parent="EUJh6cPpPxXMoMCrmLlQ-109">
          <mxGeometry x="240" width="30" height="40" as="geometry">
            <mxRectangle width="30" height="40" as="alternateBounds" />
          </mxGeometry>
        </mxCell>
        <mxCell id="EUJh6cPpPxXMoMCrmLlQ-112" value="" style="shape=tableRow;horizontal=0;startSize=0;swimlaneHead=0;swimlaneBody=0;strokeColor=inherit;top=0;left=0;bottom=0;right=0;collapsible=0;dropTarget=0;fillColor=none;points=[[0,0.5],[1,0.5]];portConstraint=eastwest;fontSize=16;fontStyle=1" vertex="1" parent="EUJh6cPpPxXMoMCrmLlQ-108">
          <mxGeometry y="70" width="270" height="40" as="geometry" />
        </mxCell>
        <mxCell id="EUJh6cPpPxXMoMCrmLlQ-113" value="PFK" style="shape=partialRectangle;html=1;whiteSpace=wrap;connectable=0;strokeColor=inherit;overflow=hidden;fillColor=none;top=0;left=0;bottom=0;right=0;pointerEvents=1;fontSize=16;fontStyle=1" vertex="1" parent="EUJh6cPpPxXMoMCrmLlQ-112">
          <mxGeometry width="39" height="40" as="geometry">
            <mxRectangle width="39" height="40" as="alternateBounds" />
          </mxGeometry>
        </mxCell>
        <mxCell id="EUJh6cPpPxXMoMCrmLlQ-114" value="DNI" style="shape=partialRectangle;html=1;whiteSpace=wrap;connectable=0;strokeColor=inherit;overflow=hidden;fillColor=none;top=0;left=0;bottom=0;right=0;pointerEvents=1;fontSize=16;fontStyle=1" vertex="1" parent="EUJh6cPpPxXMoMCrmLlQ-112">
          <mxGeometry x="39" width="106" height="40" as="geometry">
            <mxRectangle width="106" height="40" as="alternateBounds" />
          </mxGeometry>
        </mxCell>
        <mxCell id="EUJh6cPpPxXMoMCrmLlQ-189" value="char(8)" style="shape=partialRectangle;html=1;whiteSpace=wrap;connectable=0;strokeColor=inherit;overflow=hidden;fillColor=none;top=0;left=0;bottom=0;right=0;pointerEvents=1;fontSize=16;fontStyle=1" vertex="1" parent="EUJh6cPpPxXMoMCrmLlQ-112">
          <mxGeometry x="145" width="95" height="40" as="geometry">
            <mxRectangle width="95" height="40" as="alternateBounds" />
          </mxGeometry>
        </mxCell>
        <mxCell id="EUJh6cPpPxXMoMCrmLlQ-197" value="N" style="shape=partialRectangle;html=1;whiteSpace=wrap;connectable=0;strokeColor=inherit;overflow=hidden;fillColor=none;top=0;left=0;bottom=0;right=0;pointerEvents=1;fontSize=16;fontStyle=1" vertex="1" parent="EUJh6cPpPxXMoMCrmLlQ-112">
          <mxGeometry x="240" width="30" height="40" as="geometry">
            <mxRectangle width="30" height="40" as="alternateBounds" />
          </mxGeometry>
        </mxCell>
        <mxCell id="EUJh6cPpPxXMoMCrmLlQ-115" value="" style="shape=tableRow;horizontal=0;startSize=0;swimlaneHead=0;swimlaneBody=0;strokeColor=inherit;top=0;left=0;bottom=0;right=0;collapsible=0;dropTarget=0;fillColor=none;points=[[0,0.5],[1,0.5]];portConstraint=eastwest;fontSize=16;fontStyle=1" vertex="1" parent="EUJh6cPpPxXMoMCrmLlQ-108">
          <mxGeometry y="110" width="270" height="40" as="geometry" />
        </mxCell>
        <mxCell id="EUJh6cPpPxXMoMCrmLlQ-116" value="PFK" style="shape=partialRectangle;html=1;whiteSpace=wrap;connectable=0;strokeColor=inherit;overflow=hidden;fillColor=none;top=0;left=0;bottom=0;right=0;pointerEvents=1;fontSize=16;fontStyle=1" vertex="1" parent="EUJh6cPpPxXMoMCrmLlQ-115">
          <mxGeometry width="39" height="40" as="geometry">
            <mxRectangle width="39" height="40" as="alternateBounds" />
          </mxGeometry>
        </mxCell>
        <mxCell id="EUJh6cPpPxXMoMCrmLlQ-117" value="matricula" style="shape=partialRectangle;html=1;whiteSpace=wrap;connectable=0;strokeColor=inherit;overflow=hidden;fillColor=none;top=0;left=0;bottom=0;right=0;pointerEvents=1;fontSize=16;fontStyle=1" vertex="1" parent="EUJh6cPpPxXMoMCrmLlQ-115">
          <mxGeometry x="39" width="106" height="40" as="geometry">
            <mxRectangle width="106" height="40" as="alternateBounds" />
          </mxGeometry>
        </mxCell>
        <mxCell id="EUJh6cPpPxXMoMCrmLlQ-190" value="char(8)" style="shape=partialRectangle;html=1;whiteSpace=wrap;connectable=0;strokeColor=inherit;overflow=hidden;fillColor=none;top=0;left=0;bottom=0;right=0;pointerEvents=1;fontSize=16;fontStyle=1" vertex="1" parent="EUJh6cPpPxXMoMCrmLlQ-115">
          <mxGeometry x="145" width="95" height="40" as="geometry">
            <mxRectangle width="95" height="40" as="alternateBounds" />
          </mxGeometry>
        </mxCell>
        <mxCell id="EUJh6cPpPxXMoMCrmLlQ-198" value="N" style="shape=partialRectangle;html=1;whiteSpace=wrap;connectable=0;strokeColor=inherit;overflow=hidden;fillColor=none;top=0;left=0;bottom=0;right=0;pointerEvents=1;fontSize=16;fontStyle=1" vertex="1" parent="EUJh6cPpPxXMoMCrmLlQ-115">
          <mxGeometry x="240" width="30" height="40" as="geometry">
            <mxRectangle width="30" height="40" as="alternateBounds" />
          </mxGeometry>
        </mxCell>
        <mxCell id="EUJh6cPpPxXMoMCrmLlQ-118" style="shape=tableRow;horizontal=0;startSize=0;swimlaneHead=0;swimlaneBody=0;strokeColor=inherit;top=0;left=0;bottom=0;right=0;collapsible=0;dropTarget=0;fillColor=none;points=[[0,0.5],[1,0.5]];portConstraint=eastwest;fontSize=16;fontStyle=1" vertex="1" parent="EUJh6cPpPxXMoMCrmLlQ-108">
          <mxGeometry y="150" width="270" height="40" as="geometry" />
        </mxCell>
        <mxCell id="EUJh6cPpPxXMoMCrmLlQ-119" value="PFK" style="shape=partialRectangle;html=1;whiteSpace=wrap;connectable=0;strokeColor=inherit;overflow=hidden;fillColor=none;top=0;left=0;bottom=0;right=0;pointerEvents=1;fontSize=16;fontStyle=1" vertex="1" parent="EUJh6cPpPxXMoMCrmLlQ-118">
          <mxGeometry width="39" height="40" as="geometry">
            <mxRectangle width="39" height="40" as="alternateBounds" />
          </mxGeometry>
        </mxCell>
        <mxCell id="EUJh6cPpPxXMoMCrmLlQ-120" value="id_agencia" style="shape=partialRectangle;html=1;whiteSpace=wrap;connectable=0;strokeColor=inherit;overflow=hidden;fillColor=none;top=0;left=0;bottom=0;right=0;pointerEvents=1;fontSize=16;fontStyle=1" vertex="1" parent="EUJh6cPpPxXMoMCrmLlQ-118">
          <mxGeometry x="39" width="106" height="40" as="geometry">
            <mxRectangle width="106" height="40" as="alternateBounds" />
          </mxGeometry>
        </mxCell>
        <mxCell id="EUJh6cPpPxXMoMCrmLlQ-191" value="int" style="shape=partialRectangle;html=1;whiteSpace=wrap;connectable=0;strokeColor=inherit;overflow=hidden;fillColor=none;top=0;left=0;bottom=0;right=0;pointerEvents=1;fontSize=16;fontStyle=1" vertex="1" parent="EUJh6cPpPxXMoMCrmLlQ-118">
          <mxGeometry x="145" width="95" height="40" as="geometry">
            <mxRectangle width="95" height="40" as="alternateBounds" />
          </mxGeometry>
        </mxCell>
        <mxCell id="EUJh6cPpPxXMoMCrmLlQ-199" value="N" style="shape=partialRectangle;html=1;whiteSpace=wrap;connectable=0;strokeColor=inherit;overflow=hidden;fillColor=none;top=0;left=0;bottom=0;right=0;pointerEvents=1;fontSize=16;fontStyle=1" vertex="1" parent="EUJh6cPpPxXMoMCrmLlQ-118">
          <mxGeometry x="240" width="30" height="40" as="geometry">
            <mxRectangle width="30" height="40" as="alternateBounds" />
          </mxGeometry>
        </mxCell>
        <mxCell id="EUJh6cPpPxXMoMCrmLlQ-121" style="shape=tableRow;horizontal=0;startSize=0;swimlaneHead=0;swimlaneBody=0;strokeColor=inherit;top=0;left=0;bottom=0;right=0;collapsible=0;dropTarget=0;fillColor=none;points=[[0,0.5],[1,0.5]];portConstraint=eastwest;fontSize=16;" vertex="1" parent="EUJh6cPpPxXMoMCrmLlQ-108">
          <mxGeometry y="190" width="270" height="40" as="geometry" />
        </mxCell>
        <mxCell id="EUJh6cPpPxXMoMCrmLlQ-122" style="shape=partialRectangle;html=1;whiteSpace=wrap;connectable=0;strokeColor=inherit;overflow=hidden;fillColor=none;top=0;left=0;bottom=0;right=0;pointerEvents=1;fontSize=16;" vertex="1" parent="EUJh6cPpPxXMoMCrmLlQ-121">
          <mxGeometry width="39" height="40" as="geometry">
            <mxRectangle width="39" height="40" as="alternateBounds" />
          </mxGeometry>
        </mxCell>
        <mxCell id="EUJh6cPpPxXMoMCrmLlQ-123" value="fecha_reserva" style="shape=partialRectangle;html=1;whiteSpace=wrap;connectable=0;strokeColor=inherit;overflow=hidden;fillColor=none;top=0;left=0;bottom=0;right=0;pointerEvents=1;fontSize=16;" vertex="1" parent="EUJh6cPpPxXMoMCrmLlQ-121">
          <mxGeometry x="39" width="106" height="40" as="geometry">
            <mxRectangle width="106" height="40" as="alternateBounds" />
          </mxGeometry>
        </mxCell>
        <mxCell id="EUJh6cPpPxXMoMCrmLlQ-192" value="timestamp" style="shape=partialRectangle;html=1;whiteSpace=wrap;connectable=0;strokeColor=inherit;overflow=hidden;fillColor=none;top=0;left=0;bottom=0;right=0;pointerEvents=1;fontSize=16;" vertex="1" parent="EUJh6cPpPxXMoMCrmLlQ-121">
          <mxGeometry x="145" width="95" height="40" as="geometry">
            <mxRectangle width="95" height="40" as="alternateBounds" />
          </mxGeometry>
        </mxCell>
        <mxCell id="EUJh6cPpPxXMoMCrmLlQ-200" value="N" style="shape=partialRectangle;html=1;whiteSpace=wrap;connectable=0;strokeColor=inherit;overflow=hidden;fillColor=none;top=0;left=0;bottom=0;right=0;pointerEvents=1;fontSize=16;" vertex="1" parent="EUJh6cPpPxXMoMCrmLlQ-121">
          <mxGeometry x="240" width="30" height="40" as="geometry">
            <mxRectangle width="30" height="40" as="alternateBounds" />
          </mxGeometry>
        </mxCell>
        <mxCell id="EUJh6cPpPxXMoMCrmLlQ-124" style="shape=tableRow;horizontal=0;startSize=0;swimlaneHead=0;swimlaneBody=0;strokeColor=inherit;top=0;left=0;bottom=0;right=0;collapsible=0;dropTarget=0;fillColor=none;points=[[0,0.5],[1,0.5]];portConstraint=eastwest;fontSize=16;" vertex="1" parent="EUJh6cPpPxXMoMCrmLlQ-108">
          <mxGeometry y="230" width="270" height="40" as="geometry" />
        </mxCell>
        <mxCell id="EUJh6cPpPxXMoMCrmLlQ-125" style="shape=partialRectangle;html=1;whiteSpace=wrap;connectable=0;strokeColor=inherit;overflow=hidden;fillColor=none;top=0;left=0;bottom=0;right=0;pointerEvents=1;fontSize=16;" vertex="1" parent="EUJh6cPpPxXMoMCrmLlQ-124">
          <mxGeometry width="39" height="40" as="geometry">
            <mxRectangle width="39" height="40" as="alternateBounds" />
          </mxGeometry>
        </mxCell>
        <mxCell id="EUJh6cPpPxXMoMCrmLlQ-126" value="fecha_fin" style="shape=partialRectangle;html=1;whiteSpace=wrap;connectable=0;strokeColor=inherit;overflow=hidden;fillColor=none;top=0;left=0;bottom=0;right=0;pointerEvents=1;fontSize=16;" vertex="1" parent="EUJh6cPpPxXMoMCrmLlQ-124">
          <mxGeometry x="39" width="106" height="40" as="geometry">
            <mxRectangle width="106" height="40" as="alternateBounds" />
          </mxGeometry>
        </mxCell>
        <mxCell id="EUJh6cPpPxXMoMCrmLlQ-193" value="timestamp" style="shape=partialRectangle;html=1;whiteSpace=wrap;connectable=0;strokeColor=inherit;overflow=hidden;fillColor=none;top=0;left=0;bottom=0;right=0;pointerEvents=1;fontSize=16;" vertex="1" parent="EUJh6cPpPxXMoMCrmLlQ-124">
          <mxGeometry x="145" width="95" height="40" as="geometry">
            <mxRectangle width="95" height="40" as="alternateBounds" />
          </mxGeometry>
        </mxCell>
        <mxCell id="EUJh6cPpPxXMoMCrmLlQ-201" value="N" style="shape=partialRectangle;html=1;whiteSpace=wrap;connectable=0;strokeColor=inherit;overflow=hidden;fillColor=none;top=0;left=0;bottom=0;right=0;pointerEvents=1;fontSize=16;" vertex="1" parent="EUJh6cPpPxXMoMCrmLlQ-124">
          <mxGeometry x="240" width="30" height="40" as="geometry">
            <mxRectangle width="30" height="40" as="alternateBounds" />
          </mxGeometry>
        </mxCell>
        <mxCell id="EUJh6cPpPxXMoMCrmLlQ-127" style="shape=tableRow;horizontal=0;startSize=0;swimlaneHead=0;swimlaneBody=0;strokeColor=inherit;top=0;left=0;bottom=0;right=0;collapsible=0;dropTarget=0;fillColor=none;points=[[0,0.5],[1,0.5]];portConstraint=eastwest;fontSize=16;" vertex="1" parent="EUJh6cPpPxXMoMCrmLlQ-108">
          <mxGeometry y="270" width="270" height="40" as="geometry" />
        </mxCell>
        <mxCell id="EUJh6cPpPxXMoMCrmLlQ-128" style="shape=partialRectangle;html=1;whiteSpace=wrap;connectable=0;strokeColor=inherit;overflow=hidden;fillColor=none;top=0;left=0;bottom=0;right=0;pointerEvents=1;fontSize=16;" vertex="1" parent="EUJh6cPpPxXMoMCrmLlQ-127">
          <mxGeometry width="39" height="40" as="geometry">
            <mxRectangle width="39" height="40" as="alternateBounds" />
          </mxGeometry>
        </mxCell>
        <mxCell id="EUJh6cPpPxXMoMCrmLlQ-129" value="pago" style="shape=partialRectangle;html=1;whiteSpace=wrap;connectable=0;strokeColor=inherit;overflow=hidden;fillColor=none;top=0;left=0;bottom=0;right=0;pointerEvents=1;fontSize=16;" vertex="1" parent="EUJh6cPpPxXMoMCrmLlQ-127">
          <mxGeometry x="39" width="106" height="40" as="geometry">
            <mxRectangle width="106" height="40" as="alternateBounds" />
          </mxGeometry>
        </mxCell>
        <mxCell id="EUJh6cPpPxXMoMCrmLlQ-194" value="int" style="shape=partialRectangle;html=1;whiteSpace=wrap;connectable=0;strokeColor=inherit;overflow=hidden;fillColor=none;top=0;left=0;bottom=0;right=0;pointerEvents=1;fontSize=16;" vertex="1" parent="EUJh6cPpPxXMoMCrmLlQ-127">
          <mxGeometry x="145" width="95" height="40" as="geometry">
            <mxRectangle width="95" height="40" as="alternateBounds" />
          </mxGeometry>
        </mxCell>
        <mxCell id="EUJh6cPpPxXMoMCrmLlQ-202" value="N" style="shape=partialRectangle;html=1;whiteSpace=wrap;connectable=0;strokeColor=inherit;overflow=hidden;fillColor=none;top=0;left=0;bottom=0;right=0;pointerEvents=1;fontSize=16;" vertex="1" parent="EUJh6cPpPxXMoMCrmLlQ-127">
          <mxGeometry x="240" width="30" height="40" as="geometry">
            <mxRectangle width="30" height="40" as="alternateBounds" />
          </mxGeometry>
        </mxCell>
        <mxCell id="EUJh6cPpPxXMoMCrmLlQ-130" style="shape=tableRow;horizontal=0;startSize=0;swimlaneHead=0;swimlaneBody=0;strokeColor=inherit;top=0;left=0;bottom=0;right=0;collapsible=0;dropTarget=0;fillColor=none;points=[[0,0.5],[1,0.5]];portConstraint=eastwest;fontSize=16;" vertex="1" parent="EUJh6cPpPxXMoMCrmLlQ-108">
          <mxGeometry y="310" width="270" height="40" as="geometry" />
        </mxCell>
        <mxCell id="EUJh6cPpPxXMoMCrmLlQ-131" style="shape=partialRectangle;html=1;whiteSpace=wrap;connectable=0;strokeColor=inherit;overflow=hidden;fillColor=none;top=0;left=0;bottom=0;right=0;pointerEvents=1;fontSize=16;" vertex="1" parent="EUJh6cPpPxXMoMCrmLlQ-130">
          <mxGeometry width="39" height="40" as="geometry">
            <mxRectangle width="39" height="40" as="alternateBounds" />
          </mxGeometry>
        </mxCell>
        <mxCell id="EUJh6cPpPxXMoMCrmLlQ-132" value="precio" style="shape=partialRectangle;html=1;whiteSpace=wrap;connectable=0;strokeColor=inherit;overflow=hidden;fillColor=none;top=0;left=0;bottom=0;right=0;pointerEvents=1;fontSize=16;" vertex="1" parent="EUJh6cPpPxXMoMCrmLlQ-130">
          <mxGeometry x="39" width="106" height="40" as="geometry">
            <mxRectangle width="106" height="40" as="alternateBounds" />
          </mxGeometry>
        </mxCell>
        <mxCell id="EUJh6cPpPxXMoMCrmLlQ-195" value="int" style="shape=partialRectangle;html=1;whiteSpace=wrap;connectable=0;strokeColor=inherit;overflow=hidden;fillColor=none;top=0;left=0;bottom=0;right=0;pointerEvents=1;fontSize=16;" vertex="1" parent="EUJh6cPpPxXMoMCrmLlQ-130">
          <mxGeometry x="145" width="95" height="40" as="geometry">
            <mxRectangle width="95" height="40" as="alternateBounds" />
          </mxGeometry>
        </mxCell>
        <mxCell id="EUJh6cPpPxXMoMCrmLlQ-203" value="N" style="shape=partialRectangle;html=1;whiteSpace=wrap;connectable=0;strokeColor=inherit;overflow=hidden;fillColor=none;top=0;left=0;bottom=0;right=0;pointerEvents=1;fontSize=16;" vertex="1" parent="EUJh6cPpPxXMoMCrmLlQ-130">
          <mxGeometry x="240" width="30" height="40" as="geometry">
            <mxRectangle width="30" height="40" as="alternateBounds" />
          </mxGeometry>
        </mxCell>
        <mxCell id="EUJh6cPpPxXMoMCrmLlQ-133" value="" style="edgeStyle=entityRelationEdgeStyle;fontSize=12;html=1;endArrow=ERoneToMany;startArrow=ERmandOne;rounded=0;exitX=1;exitY=0.5;exitDx=0;exitDy=0;entryX=0;entryY=0.5;entryDx=0;entryDy=0;" edge="1" parent="1" source="EUJh6cPpPxXMoMCrmLlQ-2" target="EUJh6cPpPxXMoMCrmLlQ-105">
          <mxGeometry width="100" height="100" relative="1" as="geometry">
            <mxPoint x="240" y="360" as="sourcePoint" />
            <mxPoint x="340" y="260" as="targetPoint" />
          </mxGeometry>
        </mxCell>
        <mxCell id="EUJh6cPpPxXMoMCrmLlQ-134" value="" style="edgeStyle=entityRelationEdgeStyle;fontSize=12;html=1;endArrow=ERoneToMany;startArrow=ERmandOne;rounded=0;exitX=0;exitY=0.5;exitDx=0;exitDy=0;entryX=1;entryY=0.5;entryDx=0;entryDy=0;" edge="1" parent="1" source="EUJh6cPpPxXMoMCrmLlQ-15" target="EUJh6cPpPxXMoMCrmLlQ-102">
          <mxGeometry width="100" height="100" relative="1" as="geometry">
            <mxPoint x="330" y="370" as="sourcePoint" />
            <mxPoint x="430" y="270" as="targetPoint" />
          </mxGeometry>
        </mxCell>
        <mxCell id="EUJh6cPpPxXMoMCrmLlQ-135" value="" style="edgeStyle=entityRelationEdgeStyle;fontSize=12;html=1;endArrow=ERoneToMany;startArrow=ERmandOne;rounded=0;exitX=1;exitY=0.5;exitDx=0;exitDy=0;" edge="1" parent="1" source="EUJh6cPpPxXMoMCrmLlQ-15" target="EUJh6cPpPxXMoMCrmLlQ-86">
          <mxGeometry width="100" height="100" relative="1" as="geometry">
            <mxPoint x="560" y="490" as="sourcePoint" />
            <mxPoint x="660" y="390" as="targetPoint" />
          </mxGeometry>
        </mxCell>
        <mxCell id="EUJh6cPpPxXMoMCrmLlQ-136" value="" style="edgeStyle=entityRelationEdgeStyle;fontSize=12;html=1;endArrow=ERoneToMany;startArrow=ERmandOne;rounded=0;exitX=1;exitY=0.5;exitDx=0;exitDy=0;entryX=0;entryY=0.5;entryDx=0;entryDy=0;" edge="1" parent="1" source="EUJh6cPpPxXMoMCrmLlQ-15" target="EUJh6cPpPxXMoMCrmLlQ-118">
          <mxGeometry width="100" height="100" relative="1" as="geometry">
            <mxPoint x="840" y="290" as="sourcePoint" />
            <mxPoint x="1020" y="660" as="targetPoint" />
          </mxGeometry>
        </mxCell>
        <mxCell id="EUJh6cPpPxXMoMCrmLlQ-137" value="" style="edgeStyle=entityRelationEdgeStyle;fontSize=12;html=1;endArrow=ERoneToMany;startArrow=ERmandOne;rounded=0;exitX=1;exitY=0.5;exitDx=0;exitDy=0;entryX=0;entryY=0.5;entryDx=0;entryDy=0;" edge="1" parent="1" source="EUJh6cPpPxXMoMCrmLlQ-59" target="EUJh6cPpPxXMoMCrmLlQ-115">
          <mxGeometry width="100" height="100" relative="1" as="geometry">
            <mxPoint x="560" y="520" as="sourcePoint" />
            <mxPoint x="660" y="420" as="targetPoint" />
          </mxGeometry>
        </mxCell>
        <mxCell id="EUJh6cPpPxXMoMCrmLlQ-138" value="" style="edgeStyle=entityRelationEdgeStyle;fontSize=12;html=1;endArrow=ERoneToMany;startArrow=ERmandOne;rounded=0;exitX=1;exitY=0.5;exitDx=0;exitDy=0;entryX=0;entryY=0.5;entryDx=0;entryDy=0;" edge="1" parent="1" source="EUJh6cPpPxXMoMCrmLlQ-90" target="EUJh6cPpPxXMoMCrmLlQ-62">
          <mxGeometry width="100" height="100" relative="1" as="geometry">
            <mxPoint x="820" y="270" as="sourcePoint" />
            <mxPoint x="920" y="170" as="targetPoint" />
          </mxGeometry>
        </mxCell>
        <mxCell id="EUJh6cPpPxXMoMCrmLlQ-139" value="" style="edgeStyle=entityRelationEdgeStyle;fontSize=12;html=1;endArrow=ERoneToMany;startArrow=ERmandOne;rounded=0;exitX=0;exitY=0.5;exitDx=0;exitDy=0;entryX=1;entryY=0.5;entryDx=0;entryDy=0;" edge="1" parent="1" source="EUJh6cPpPxXMoMCrmLlQ-31" target="EUJh6cPpPxXMoMCrmLlQ-112">
          <mxGeometry width="100" height="100" relative="1" as="geometry">
            <mxPoint x="770" y="320" as="sourcePoint" />
            <mxPoint x="870" y="220" as="targetPoint" />
          </mxGeometry>
        </mxCell>
        <mxCell id="EUJh6cPpPxXMoMCrmLlQ-140" value="TEL_AGENCIA" style="shape=table;startSize=30;container=1;collapsible=0;childLayout=tableLayout;strokeColor=#6c8ebf;fontSize=16;fillColor=#dae8fc;" vertex="1" parent="1">
          <mxGeometry x="110" y="560" width="270" height="110" as="geometry" />
        </mxCell>
        <mxCell id="EUJh6cPpPxXMoMCrmLlQ-141" value="" style="shape=tableRow;horizontal=0;startSize=0;swimlaneHead=0;swimlaneBody=0;strokeColor=inherit;top=0;left=0;bottom=0;right=0;collapsible=0;dropTarget=0;fillColor=none;points=[[0,0.5],[1,0.5]];portConstraint=eastwest;fontSize=16;" vertex="1" parent="EUJh6cPpPxXMoMCrmLlQ-140">
          <mxGeometry y="30" width="270" height="40" as="geometry" />
        </mxCell>
        <mxCell id="EUJh6cPpPxXMoMCrmLlQ-142" value="PFK" style="shape=partialRectangle;html=1;whiteSpace=wrap;connectable=0;strokeColor=inherit;overflow=hidden;fillColor=none;top=0;left=0;bottom=0;right=0;pointerEvents=1;fontSize=16;fontStyle=1" vertex="1" parent="EUJh6cPpPxXMoMCrmLlQ-141">
          <mxGeometry width="37" height="40" as="geometry">
            <mxRectangle width="37" height="40" as="alternateBounds" />
          </mxGeometry>
        </mxCell>
        <mxCell id="EUJh6cPpPxXMoMCrmLlQ-143" value="id_agencia" style="shape=partialRectangle;html=1;whiteSpace=wrap;connectable=0;strokeColor=inherit;overflow=hidden;fillColor=none;top=0;left=0;bottom=0;right=0;pointerEvents=1;fontSize=16;fontStyle=1" vertex="1" parent="EUJh6cPpPxXMoMCrmLlQ-141">
          <mxGeometry x="37" width="93" height="40" as="geometry">
            <mxRectangle width="93" height="40" as="alternateBounds" />
          </mxGeometry>
        </mxCell>
        <mxCell id="EUJh6cPpPxXMoMCrmLlQ-245" style="shape=partialRectangle;html=1;whiteSpace=wrap;connectable=0;strokeColor=inherit;overflow=hidden;fillColor=none;top=0;left=0;bottom=0;right=0;pointerEvents=1;fontSize=16;fontStyle=1" vertex="1" parent="EUJh6cPpPxXMoMCrmLlQ-141">
          <mxGeometry x="130" width="112" height="40" as="geometry">
            <mxRectangle width="112" height="40" as="alternateBounds" />
          </mxGeometry>
        </mxCell>
        <mxCell id="EUJh6cPpPxXMoMCrmLlQ-247" style="shape=partialRectangle;html=1;whiteSpace=wrap;connectable=0;strokeColor=inherit;overflow=hidden;fillColor=none;top=0;left=0;bottom=0;right=0;pointerEvents=1;fontSize=16;fontStyle=1" vertex="1" parent="EUJh6cPpPxXMoMCrmLlQ-141">
          <mxGeometry x="242" width="28" height="40" as="geometry">
            <mxRectangle width="28" height="40" as="alternateBounds" />
          </mxGeometry>
        </mxCell>
        <mxCell id="EUJh6cPpPxXMoMCrmLlQ-144" value="" style="shape=tableRow;horizontal=0;startSize=0;swimlaneHead=0;swimlaneBody=0;strokeColor=inherit;top=0;left=0;bottom=0;right=0;collapsible=0;dropTarget=0;fillColor=none;points=[[0,0.5],[1,0.5]];portConstraint=eastwest;fontSize=16;" vertex="1" parent="EUJh6cPpPxXMoMCrmLlQ-140">
          <mxGeometry y="70" width="270" height="40" as="geometry" />
        </mxCell>
        <mxCell id="EUJh6cPpPxXMoMCrmLlQ-145" value="PK" style="shape=partialRectangle;html=1;whiteSpace=wrap;connectable=0;strokeColor=inherit;overflow=hidden;fillColor=none;top=0;left=0;bottom=0;right=0;pointerEvents=1;fontSize=16;fontStyle=1" vertex="1" parent="EUJh6cPpPxXMoMCrmLlQ-144">
          <mxGeometry width="37" height="40" as="geometry">
            <mxRectangle width="37" height="40" as="alternateBounds" />
          </mxGeometry>
        </mxCell>
        <mxCell id="EUJh6cPpPxXMoMCrmLlQ-146" value="telefono" style="shape=partialRectangle;html=1;whiteSpace=wrap;connectable=0;strokeColor=inherit;overflow=hidden;fillColor=none;top=0;left=0;bottom=0;right=0;pointerEvents=1;fontSize=16;fontStyle=1" vertex="1" parent="EUJh6cPpPxXMoMCrmLlQ-144">
          <mxGeometry x="37" width="93" height="40" as="geometry">
            <mxRectangle width="93" height="40" as="alternateBounds" />
          </mxGeometry>
        </mxCell>
        <mxCell id="EUJh6cPpPxXMoMCrmLlQ-246" style="shape=partialRectangle;html=1;whiteSpace=wrap;connectable=0;strokeColor=inherit;overflow=hidden;fillColor=none;top=0;left=0;bottom=0;right=0;pointerEvents=1;fontSize=16;fontStyle=1" vertex="1" parent="EUJh6cPpPxXMoMCrmLlQ-144">
          <mxGeometry x="130" width="112" height="40" as="geometry">
            <mxRectangle width="112" height="40" as="alternateBounds" />
          </mxGeometry>
        </mxCell>
        <mxCell id="EUJh6cPpPxXMoMCrmLlQ-248" style="shape=partialRectangle;html=1;whiteSpace=wrap;connectable=0;strokeColor=inherit;overflow=hidden;fillColor=none;top=0;left=0;bottom=0;right=0;pointerEvents=1;fontSize=16;fontStyle=1" vertex="1" parent="EUJh6cPpPxXMoMCrmLlQ-144">
          <mxGeometry x="242" width="28" height="40" as="geometry">
            <mxRectangle width="28" height="40" as="alternateBounds" />
          </mxGeometry>
        </mxCell>
        <mxCell id="EUJh6cPpPxXMoMCrmLlQ-147" value="" style="edgeStyle=entityRelationEdgeStyle;fontSize=12;html=1;endArrow=ERoneToMany;startArrow=ERmandOne;rounded=0;exitX=0;exitY=0.5;exitDx=0;exitDy=0;entryX=1;entryY=0.5;entryDx=0;entryDy=0;" edge="1" parent="1" source="EUJh6cPpPxXMoMCrmLlQ-18" target="EUJh6cPpPxXMoMCrmLlQ-141">
          <mxGeometry width="100" height="100" relative="1" as="geometry">
            <mxPoint x="450" y="630" as="sourcePoint" />
            <mxPoint x="550" y="530" as="targetPoint" />
          </mxGeometry>
        </mxCell>
      </root>
    </mxGraphModel>
  </diagram>
</mxfile>
